<svg version="1.1" xmlns="http://www.w3.org/2000/svg" viewBox="0 0 689.932861328125 607.2794647216797" width="689.932861328125" height="607.2794647216797">
  <!-- svg-source:excalidraw -->
  
  <defs>
    <style class="style-fonts">
      @font-face {
        font-family: "Virgil";
        src: url("https://excalidraw.com/Virgil.woff2");
      }
      @font-face {
        font-family: "Cascadia";
        src: url("https://excalidraw.com/Cascadia.woff2");
      }
    </style>
    
  </defs>
  <rect x="0" y="0" width="689.932861328125" height="607.2794647216797" fill="#ffffff"></rect><g stroke-linecap="round" transform="translate(10 10) rotate(0 334.9664306640625 293.63973236083984)"><path d="M32 0 M32 0 C200.02 0.16, 367.35 1.1, 637.93 0 M32 0 C222.74 2.54, 412.8 2.22, 637.93 0 M637.93 0 C658.4 -1.63, 669.02 11.32, 669.93 32 M637.93 0 C659.45 -0.21, 669.28 10.71, 669.93 32 M669.93 32 C667.98 238.09, 669 443.97, 669.93 555.28 M669.93 32 C670.25 230.25, 669.68 429.6, 669.93 555.28 M669.93 555.28 C668.12 577.7, 661.21 586.48, 637.93 587.28 M669.93 555.28 C671.89 576.01, 658.14 587.91, 637.93 587.28 M637.93 587.28 C442.3 588.09, 247.9 588.86, 32 587.28 M637.93 587.28 C484.39 584.76, 331.4 585.04, 32 587.28 M32 587.28 C12.35 588.07, 0.16 577.73, 0 555.28 M32 587.28 C11.26 587.52, 1.31 577.53, 0 555.28 M0 555.28 C0.24 436.6, -0.89 317.2, 0 32 M0 555.28 C1.33 374.15, 1.81 193.67, 0 32 M0 32 C-0.08 9.35, 12.19 1.57, 32 0 M0 32 C-2.3 11.83, 11.75 1.68, 32 0" stroke="#1971c2" stroke-width="1" fill="none"></path></g><g stroke-linecap="round" transform="translate(10.804244995117188 11.89361572265625) rotate(0 333.65018463134766 44.69361962212457)"><path d="M5.29 5.93 C5.29 5.93, 5.29 5.93, 5.29 5.93 M5.29 5.93 C5.29 5.93, 5.29 5.93, 5.29 5.93 M3.06 14.59 C5.35 11.65, 10.81 7.69, 13.56 2.51 M3.06 14.59 C5.43 12.93, 7.45 9.2, 13.56 2.51 M0.83 23.25 C7.13 13.44, 13.81 6.09, 19.86 1.36 M0.83 23.25 C7.19 16.71, 12.36 9.02, 19.86 1.36 M1.23 28.89 C7.7 20.84, 10.66 17.49, 24.85 1.72 M1.23 28.89 C9.77 18.55, 19.79 6.74, 24.85 1.72 M0.97 35.29 C10.32 27.97, 14.35 18.25, 29.83 2.08 M0.97 35.29 C10.4 24.61, 20.88 12.7, 29.83 2.08 M0.7 41.69 C12.13 29.84, 20.11 16.35, 35.48 1.69 M0.7 41.69 C11.09 29.72, 22.66 17.41, 35.48 1.69 M1.1 47.33 C11.24 36.1, 22.69 21.99, 40.46 2.05 M1.1 47.33 C12.84 34.06, 25.14 20.19, 40.46 2.05 M0.84 53.73 C13.54 38.2, 28.28 20.24, 46.11 1.65 M0.84 53.73 C18.85 33.6, 34.6 14.62, 46.11 1.65 M1.23 59.37 C15.03 44.58, 26.81 31.65, 51.09 2.01 M1.23 59.37 C19.74 39.23, 37.35 19.26, 51.09 2.01 M0.97 65.77 C16.15 47.1, 33.5 30.07, 56.74 1.62 M0.97 65.77 C15.62 48.27, 29.39 32.54, 56.74 1.62 M2.68 69.9 C18.21 52.4, 31.75 34.42, 61.72 1.98 M2.68 69.9 C20.99 49.84, 39.21 30.28, 61.72 1.98 M1.76 77.06 C13.82 61.13, 27.23 46.37, 66.71 2.34 M1.76 77.06 C16.32 61.44, 29.98 44.35, 66.71 2.34 M4.12 80.43 C32.68 49.39, 57.16 20.85, 72.35 1.94 M4.12 80.43 C25.23 55.97, 46.52 30.16, 72.35 1.94 M6.49 83.81 C30.05 56.1, 58.65 26.12, 77.34 2.31 M6.49 83.81 C33.23 54.34, 57.96 25.99, 77.34 2.31 M9.5 86.44 C29.59 64.4, 49.01 42.74, 82.98 1.91 M9.5 86.44 C27.56 63.04, 46.74 42.58, 82.98 1.91 M13.18 88.31 C30.99 69.75, 45.69 49.96, 87.97 2.27 M13.18 88.31 C40.57 56.01, 68.11 24.15, 87.97 2.27 M17.51 89.42 C47.85 55, 77.27 18.37, 93.61 1.88 M17.51 89.42 C43 61.24, 67.52 32.28, 93.61 1.88 M23.15 89.03 C47.91 60.94, 73.36 30.85, 98.6 2.24 M23.15 89.03 C51.84 56.43, 80.18 22.74, 98.6 2.24 M28.14 89.39 C47.32 65.37, 69.66 43.47, 104.24 1.84 M28.14 89.39 C46.15 69.63, 60.85 51.53, 104.24 1.84 M33.13 89.75 C51.28 68.11, 74.63 42.97, 109.23 2.2 M33.13 89.75 C56.84 62.2, 80.36 35.81, 109.23 2.2 M38.77 89.35 C61.08 62.7, 83.94 37.32, 114.87 1.81 M38.77 89.35 C63.97 59.42, 90.81 30.8, 114.87 1.81 M43.76 89.71 C58.81 74.11, 74 53.68, 119.86 2.17 M43.76 89.71 C68.81 59.9, 94.23 31.17, 119.86 2.17 M49.4 89.32 C77.7 55.16, 111.18 19.74, 125.5 1.77 M49.4 89.32 C66.75 69.03, 85.84 48.95, 125.5 1.77 M54.39 89.68 C83.16 56.8, 112.11 23.66, 130.49 2.13 M54.39 89.68 C81.93 56.54, 111.78 23.61, 130.49 2.13 M60.03 89.28 C80.93 66.11, 99.44 43.04, 136.13 1.74 M60.03 89.28 C87.88 59.25, 114.14 28.08, 136.13 1.74 M65.02 89.64 C82.95 64.79, 107.07 41.63, 141.12 2.1 M65.02 89.64 C84.56 67.51, 105.93 43.73, 141.12 2.1 M70.66 89.25 C91.33 64.5, 115.5 38.76, 146.76 1.7 M70.66 89.25 C90.61 65.36, 109.48 43.2, 146.76 1.7 M75.65 89.61 C101.83 56.74, 130.76 25.81, 151.75 2.06 M75.65 89.61 C104.18 56.63, 130.56 25.67, 151.75 2.06 M81.29 89.22 C96.37 70.22, 116.2 49.88, 156.74 2.42 M81.29 89.22 C97.19 70.21, 113.93 51.39, 156.74 2.42 M86.28 89.58 C103.51 69.05, 119.61 50.69, 162.38 2.03 M86.28 89.58 C106.9 64.72, 129.47 38.21, 162.38 2.03 M91.92 89.18 C120.42 59.35, 146.36 26.33, 167.37 2.39 M91.92 89.18 C109.79 68.05, 127.29 48.57, 167.37 2.39 M96.91 89.54 C123.96 58.28, 151.04 26.34, 173.01 1.99 M96.91 89.54 C118.47 65.38, 139.97 40.08, 173.01 1.99 M102.55 89.15 C124.29 64.85, 146.41 39.38, 178 2.35 M102.55 89.15 C118.46 68.54, 135.4 48.86, 178 2.35 M107.54 89.51 C124.77 69.17, 145.37 47.1, 183.64 1.96 M107.54 89.51 C136.13 55.76, 165.82 22.62, 183.64 1.96 M113.18 89.11 C140.99 57.16, 166.55 23.83, 188.63 2.32 M113.18 89.11 C129.55 70.13, 144.31 51.99, 188.63 2.32 M118.17 89.47 C138.02 66.6, 162.16 42.87, 194.27 1.93 M118.17 89.47 C138.42 66.38, 155.84 45.25, 194.27 1.93 M123.16 89.83 C144.55 65.99, 162.01 45.31, 199.26 2.29 M123.16 89.83 C146.62 61.29, 173.22 32.38, 199.26 2.29 M128.8 89.44 C152.05 60.65, 180.15 28.28, 204.9 1.89 M128.8 89.44 C155.52 58.69, 183.52 27.89, 204.9 1.89 M133.79 89.8 C149.65 73.93, 166.38 54.62, 209.89 2.25 M133.79 89.8 C152.62 68.11, 170.47 45.94, 209.89 2.25 M139.43 89.4 C164.15 61.11, 191.66 32.63, 215.53 1.86 M139.43 89.4 C168.67 55.51, 196.78 21.51, 215.53 1.86 M144.42 89.76 C169.66 60.17, 193.75 29.98, 220.52 2.22 M144.42 89.76 C170.8 59.88, 194.55 31.69, 220.52 2.22 M150.06 89.37 C164.23 71.35, 182.25 53.83, 226.16 1.82 M150.06 89.37 C169.83 67.22, 187.63 46.75, 226.16 1.82 M155.05 89.73 C178.91 58.62, 205.46 31.42, 231.15 2.18 M155.05 89.73 C174.03 65.24, 194.35 43.03, 231.15 2.18 M160.69 89.33 C187.83 60.96, 214.16 27.97, 236.79 1.79 M160.69 89.33 C182.65 65.44, 202.39 42.12, 236.79 1.79 M165.68 89.69 C185.07 69.3, 199.65 45.75, 241.78 2.15 M165.68 89.69 C184.57 66.23, 206.42 42.64, 241.78 2.15 M171.32 89.3 C199.54 60.71, 222.42 29.33, 247.42 1.75 M171.32 89.3 C200.03 54.36, 230.43 21.32, 247.42 1.75 M176.31 89.66 C205.69 55.46, 235.8 19.79, 252.41 2.11 M176.31 89.66 C196.46 67.3, 216.42 45.52, 252.41 2.11 M181.95 89.26 C200.61 67.76, 217.6 46.76, 257.4 2.47 M181.95 89.26 C209.45 58.79, 236.35 26.13, 257.4 2.47 M186.94 89.63 C208.37 65.99, 227.54 43.75, 263.04 2.08 M186.94 89.63 C206.22 68.86, 226.29 45.49, 263.04 2.08 M192.58 89.23 C218.63 60.37, 244.9 31.18, 268.03 2.44 M192.58 89.23 C218.24 60.65, 244.04 31.19, 268.03 2.44 M197.57 89.59 C218.49 63.93, 243.41 38.21, 273.67 2.04 M197.57 89.59 C215.86 70.72, 232.05 50.15, 273.67 2.04 M203.21 89.2 C227.9 58.37, 254.85 30.97, 278.66 2.4 M203.21 89.2 C227.26 60.63, 251.1 33.9, 278.66 2.4 M208.2 89.56 C224.46 70.56, 242.32 50.23, 284.3 2.01 M208.2 89.56 C224.1 68.61, 242.23 49.92, 284.3 2.01 M213.84 89.16 C244.23 55.83, 274.53 20.78, 289.29 2.37 M213.84 89.16 C238.37 62.04, 260.58 35.63, 289.29 2.37 M218.83 89.52 C245.52 58.78, 276.66 25.74, 294.93 1.98 M218.83 89.52 C237.42 68.72, 255.69 46.05, 294.93 1.98 M223.81 89.88 C243.21 67.77, 265.34 45.73, 299.92 2.34 M223.81 89.88 C247.21 64.18, 269.69 37.17, 299.92 2.34 M229.46 89.49 C254.69 59.15, 279.97 32.59, 305.56 1.94 M229.46 89.49 C260.5 55.57, 289.29 21, 305.56 1.94 M234.44 89.85 C264.09 55.05, 293.81 24.25, 310.55 2.3 M234.44 89.85 C260.5 59.63, 286.33 28.84, 310.55 2.3 M240.09 89.45 C259.34 66.44, 282.79 42.06, 316.19 1.91 M240.09 89.45 C260.6 67.21, 280.61 44.17, 316.19 1.91 M245.07 89.81 C261.52 69.65, 279.12 51.49, 321.18 2.27 M245.07 89.81 C266.87 64.51, 287.86 41.02, 321.18 2.27 M250.72 89.42 C272.49 66.07, 294.32 39.84, 326.82 1.87 M250.72 89.42 C280.8 55.54, 309.75 21.63, 326.82 1.87 M255.7 89.78 C273.81 68.17, 288.65 50.97, 331.81 2.23 M255.7 89.78 C284.06 57.32, 313.22 23.28, 331.81 2.23 M261.35 89.38 C278.92 69.15, 293.29 50.52, 337.45 1.84 M261.35 89.38 C277.36 68.41, 296.42 49.38, 337.45 1.84 M266.33 89.74 C291.56 59.44, 316.93 29.98, 342.44 2.2 M266.33 89.74 C290.16 63.01, 314.17 35.8, 342.44 2.2 M271.98 89.35 C285.23 71.92, 303.74 52.6, 348.08 1.8 M271.98 89.35 C297.82 58.57, 323.57 29.61, 348.08 1.8 M276.96 89.71 C300.02 63.44, 322.62 35.41, 353.07 2.16 M276.96 89.71 C305.37 58.92, 332.47 26.29, 353.07 2.16 M282.61 89.31 C308.26 58.12, 336.68 28.05, 358.05 2.52 M282.61 89.31 C311.86 55.53, 339.69 21.98, 358.05 2.52 M287.59 89.67 C312.33 62.3, 339.29 32.33, 363.7 2.13 M287.59 89.67 C306.24 65.82, 326.74 44, 363.7 2.13 M293.24 89.28 C315.06 66.8, 336.64 40.08, 368.68 2.49 M293.24 89.28 C320.36 57.29, 348.27 27.17, 368.68 2.49 M298.22 89.64 C313.59 69.88, 330.64 51.49, 374.33 2.09 M298.22 89.64 C320.95 61.93, 345.07 34.76, 374.33 2.09 M303.87 89.25 C331.61 56.13, 360.12 21.77, 379.31 2.45 M303.87 89.25 C331.61 56.22, 361.21 23.97, 379.31 2.45 M308.85 89.61 C326.51 67.16, 345.05 46.77, 384.96 2.06 M308.85 89.61 C328.74 65.34, 349.18 42.42, 384.96 2.06 M314.5 89.21 C337.75 60.88, 365.33 30.38, 389.94 2.42 M314.5 89.21 C335.32 65.64, 355.6 43.62, 389.94 2.42 M319.48 89.57 C339.54 66.8, 358.81 41.74, 395.59 2.02 M319.48 89.57 C341.04 63.59, 361.56 38.93, 395.59 2.02 M324.47 89.93 C353.62 58.3, 381.43 24.98, 400.57 2.39 M324.47 89.93 C350.87 59.66, 380.32 26.06, 400.57 2.39 M330.11 89.54 C346.52 67.66, 366.22 45.14, 406.22 1.99 M330.11 89.54 C354.54 59.66, 378.97 30.76, 406.22 1.99 M335.1 89.9 C355.61 66.68, 375.82 45.06, 411.2 2.35 M335.1 89.9 C360.14 63.38, 383.39 35.53, 411.2 2.35 M340.74 89.5 C366.45 61.24, 390.57 31.86, 416.85 1.96 M340.74 89.5 C371.65 55.93, 400.05 21.46, 416.85 1.96 M345.73 89.86 C369.08 61.96, 396.21 34.2, 421.83 2.32 M345.73 89.86 C368.17 63.59, 390.66 37.23, 421.83 2.32 M351.37 89.47 C373.8 61.22, 396.8 36.93, 427.48 1.92 M351.37 89.47 C372.56 64.7, 392.19 41.62, 427.48 1.92 M356.36 89.83 C385.33 58.31, 414.58 25.29, 432.46 2.28 M356.36 89.83 C386.21 56.42, 416.63 20.36, 432.46 2.28 M362 89.43 C377.93 70.48, 396.56 50.13, 438.11 1.89 M362 89.43 C390.57 54.69, 421.79 21.36, 438.11 1.89 M366.99 89.79 C395.57 56.05, 427.02 19.55, 443.09 2.25 M366.99 89.79 C384.31 70.44, 398.72 51.92, 443.09 2.25 M372.63 89.4 C395.07 62.52, 420.25 33.26, 448.74 1.85 M372.63 89.4 C402.38 54.56, 431.86 20.41, 448.74 1.85 M377.62 89.76 C401.92 63.64, 421.59 38.12, 453.72 2.21 M377.62 89.76 C395.38 67.64, 415.89 45.18, 453.72 2.21 M383.26 89.36 C405.53 60.78, 429.05 37.9, 458.71 2.57 M383.26 89.36 C407.62 63.12, 428.87 37.5, 458.71 2.57 M388.25 89.72 C412.89 64.78, 436.15 38.11, 464.35 2.18 M388.25 89.72 C416.18 56.4, 443.86 24.71, 464.35 2.18 M393.89 89.33 C418.56 61.68, 440.77 35.83, 469.34 2.54 M393.89 89.33 C410.34 71.81, 424.5 52.83, 469.34 2.54 M398.88 89.69 C412.97 70.78, 431.1 54.95, 474.98 2.14 M398.88 89.69 C421.44 64.1, 442.92 38.49, 474.98 2.14 M404.52 89.3 C430.76 61.98, 453.37 32.35, 479.97 2.5 M404.52 89.3 C433.12 55.05, 461.5 22.79, 479.97 2.5 M409.51 89.66 C431.75 62.64, 454.64 37.06, 485.61 2.11 M409.51 89.66 C431.06 63.44, 454.76 37.65, 485.61 2.11 M415.15 89.26 C439.63 61.39, 462.51 34.51, 490.6 2.47 M415.15 89.26 C440.68 61.32, 464.8 32.58, 490.6 2.47 M420.14 89.62 C438.34 71.05, 453.79 50.76, 496.24 2.07 M420.14 89.62 C446.73 58.1, 474.19 26.21, 496.24 2.07 M425.13 89.98 C451.06 62.84, 473.06 31.33, 501.23 2.43 M425.13 89.98 C451.88 61.6, 478.27 31.84, 501.23 2.43 M430.77 89.59 C459.91 54.33, 487.57 23.72, 506.87 2.04 M430.77 89.59 C460.61 56.19, 489.12 23, 506.87 2.04 M435.76 89.95 C451.55 69.33, 471.29 49.09, 511.86 2.4 M435.76 89.95 C464.92 57.99, 492.45 26.49, 511.86 2.4 M441.4 89.55 C461.69 66.55, 481.12 45.17, 517.5 2.01 M441.4 89.55 C469.09 58.25, 495.46 28.16, 517.5 2.01 M446.39 89.91 C471.85 61.14, 499.37 30.61, 522.49 2.37 M446.39 89.91 C472.88 61.12, 497.54 29.88, 522.49 2.37 M452.03 89.52 C478.67 60.86, 502.51 35.6, 528.13 1.97 M452.03 89.52 C470.31 70.68, 487.46 50.09, 528.13 1.97 M457.02 89.88 C487.9 56.14, 515.45 24.09, 533.12 2.33 M457.02 89.88 C475.02 69.5, 491.89 49.14, 533.12 2.33 M462.66 89.48 C488.89 59.14, 514.17 32.48, 538.76 1.94 M462.66 89.48 C480.35 69.84, 496.3 48.51, 538.76 1.94 M467.65 89.84 C492.28 60.91, 518.13 31.87, 543.75 2.3 M467.65 89.84 C499.75 55.09, 529.65 21.47, 543.75 2.3 M473.29 89.45 C489.01 71.43, 505.4 51.71, 549.39 1.9 M473.29 89.45 C499.57 61.01, 522.83 31.94, 549.39 1.9 M478.28 89.81 C491.5 71.23, 508.55 52.53, 554.38 2.26 M478.28 89.81 C495.63 68.75, 515.19 46.14, 554.38 2.26 M483.92 89.41 C502.7 69.1, 519.76 51.42, 559.37 2.62 M483.92 89.41 C512.05 56.71, 539.96 22.84, 559.37 2.62 M488.91 89.77 C506.43 70.97, 526.07 50.19, 565.01 2.23 M488.91 89.77 C518.01 58.26, 545.21 25.9, 565.01 2.23 M494.55 89.38 C518.69 60.77, 544.08 31.78, 570 2.59 M494.55 89.38 C523.11 54.98, 552.34 21.19, 570 2.59 M499.54 89.74 C522.44 62.74, 544.7 37.73, 575.64 2.19 M499.54 89.74 C529.38 55.36, 559.6 20.67, 575.64 2.19 M505.18 89.34 C522.99 64.96, 544.06 44.35, 580.63 2.55 M505.18 89.34 C524.39 66.54, 544.92 44.79, 580.63 2.55 M510.17 89.71 C533.81 63.33, 555.99 37.19, 586.27 2.16 M510.17 89.71 C537.66 58.67, 564.31 25.82, 586.27 2.16 M515.81 89.31 C533.99 65.57, 556.22 41.55, 591.26 2.52 M515.81 89.31 C546.38 55.18, 575.56 20.5, 591.26 2.52 M520.8 89.67 C551.96 55.13, 580.47 21.72, 596.9 2.12 M520.8 89.67 C545.98 61.74, 570.73 33.34, 596.9 2.12 M525.79 90.03 C552.3 61.47, 577.5 31.51, 601.89 2.48 M525.79 90.03 C552.51 58.92, 579.64 26.93, 601.89 2.48 M531.43 89.64 C557.53 59.27, 586.06 29.18, 607.53 2.09 M531.43 89.64 C557.22 58.54, 584.16 29.22, 607.53 2.09 M536.42 90 C565.08 56.18, 595.81 23.47, 612.52 2.45 M536.42 90 C564.71 56.8, 593.28 25.34, 612.52 2.45 M542.06 89.6 C572.02 56.02, 604.59 20.58, 618.16 2.06 M542.06 89.6 C565.27 61.48, 587.87 35.06, 618.16 2.06 M547.05 89.96 C568.49 63.43, 589.58 40.01, 623.15 2.42 M547.05 89.96 C564.34 70.49, 581.1 52.05, 623.15 2.42 M552.69 89.57 C579.41 57.35, 608.54 22.6, 628.79 2.02 M552.69 89.57 C577.21 61.37, 601.75 32.99, 628.79 2.02 M557.68 89.93 C587.02 57.18, 616.06 19.35, 633.78 2.38 M557.68 89.93 C588.06 56.62, 618.18 23, 633.78 2.38 M563.32 89.53 C589.31 58.36, 615.89 26.56, 639.42 1.99 M563.32 89.53 C585.64 61.99, 608.18 37.2, 639.42 1.99 M568.31 89.89 C588.44 65.99, 607.95 44.1, 644.41 2.35 M568.31 89.89 C587.66 65.81, 607.22 44.02, 644.41 2.35 M573.95 89.5 C593.71 64.67, 616.53 42.59, 650.71 1.2 M573.95 89.5 C602.11 57.19, 630.11 25.87, 650.71 1.2 M578.94 89.86 C606.32 61.12, 632.8 27.76, 655.04 2.31 M578.94 89.86 C606.01 58.04, 633.91 25.64, 655.04 2.31 M584.58 89.46 C606.42 65.7, 625 43.32, 659.37 3.43 M584.58 89.46 C605.37 65.3, 626.17 43.76, 659.37 3.43 M589.57 89.82 C607.8 68.58, 626.94 49.46, 661.73 6.81 M589.57 89.82 C613.09 63.18, 635.48 36.17, 661.73 6.81 M595.21 89.43 C616.62 63.01, 640.69 37.85, 664.1 10.18 M595.21 89.43 C619.84 58.9, 646.6 28.85, 664.1 10.18 M600.2 89.79 C618.88 71.66, 636.66 49.9, 666.46 13.56 M600.2 89.79 C619.02 68.9, 637.83 46.92, 666.46 13.56 M605.84 89.39 C621.68 73.03, 639.3 51.53, 667.51 18.45 M605.84 89.39 C622.32 71.86, 639.38 53.48, 667.51 18.45 M610.83 89.75 C627.68 71.66, 644.48 55.13, 668.56 23.34 M610.83 89.75 C628.53 70.63, 645.98 49.75, 668.56 23.34 M616.47 89.36 C633.35 70.93, 652.49 50.79, 668.3 29.74 M616.47 89.36 C633.18 70.45, 649.79 52.38, 668.3 29.74 M621.46 89.72 C633.79 74.91, 649.09 57.82, 668.69 35.38 M621.46 89.72 C637.89 70.45, 655.31 51.27, 668.69 35.38 M626.44 90.08 C636.86 76.23, 647.25 65.32, 668.43 41.78 M626.44 90.08 C642.17 72.17, 657.66 56.03, 668.43 41.78 M632.09 89.69 C638.46 82.15, 647 73.27, 668.17 48.18 M632.09 89.69 C644.33 76.22, 656.92 61.44, 668.17 48.18 M637.07 90.05 C644.94 78.56, 655.73 68.53, 668.57 53.82 M637.07 90.05 C644.54 83.45, 650.23 74.94, 668.57 53.82 M642.72 89.65 C651.8 80.73, 657.03 72.15, 668.3 60.22 M642.72 89.65 C650.2 82.22, 655.76 72.76, 668.3 60.22 M647.05 90.77 C653.16 83.15, 658 80.08, 668.04 66.62 M647.05 90.77 C654.03 83.34, 658.95 75.32, 668.04 66.62 M654.66 88.11 C658.74 86.67, 660.69 81.28, 667.78 73.01 M654.66 88.11 C657.32 84.98, 661.45 80.75, 667.78 73.01" stroke="#a5d8ff" stroke-width="0.5" fill="none"></path><path d="M22.35 0 M22.35 0 C219.58 -0.35, 415.79 -1.35, 644.95 0 M22.35 0 C208.19 1.06, 394.17 1.11, 644.95 0 M644.95 0 C658.49 -1.48, 665.99 8.39, 667.3 22.35 M644.95 0 C659.28 -0.86, 668.24 8.49, 667.3 22.35 M667.3 22.35 C668.95 36.06, 666.01 49.92, 667.3 67.04 M667.3 22.35 C667.95 31.6, 667.53 40.62, 667.3 67.04 M667.3 67.04 C667.07 81.36, 660.26 89.77, 644.95 89.39 M667.3 67.04 C665.89 83.75, 658.37 89.86, 644.95 89.39 M644.95 89.39 C497.01 87.03, 349.34 87.61, 22.35 89.39 M644.95 89.39 C456.14 88.31, 266.48 88.77, 22.35 89.39 M22.35 89.39 C9.17 87.67, -0.6 81.12, 0 67.04 M22.35 89.39 C8.57 89.56, 0.03 82.99, 0 67.04 M0 67.04 C1.42 48.51, -0.68 34.26, 0 22.35 M0 67.04 C-0.71 53.84, 0.11 39.82, 0 22.35 M0 22.35 C-0.41 7.68, 8.77 1.47, 22.35 0 M0 22.35 C0.24 5.39, 8.78 1.04, 22.35 0" stroke="#1971c2" stroke-width="1" fill="none"></path></g><g stroke-linecap="round" transform="translate(351.5359903971354 122.50148349338104) rotate(0 147.80420939127606 95.49293348524307)"><path d="M32 0 M32 0 C104.36 1.84, 175.79 0.69, 263.61 0 M32 0 C85.67 -0.43, 140.17 0.64, 263.61 0 M263.61 0 C286.9 -0.16, 294.53 10.07, 295.61 32 M263.61 0 C284.65 0.94, 296.96 9.49, 295.61 32 M295.61 32 C296.37 81.89, 295.26 135.01, 295.61 158.99 M295.61 32 C294.8 71.16, 293.68 108.86, 295.61 158.99 M295.61 158.99 C294.58 178.58, 283.85 189.97, 263.61 190.99 M295.61 158.99 C294.41 178.29, 284.65 191.02, 263.61 190.99 M263.61 190.99 C181.12 191.79, 102.88 191.09, 32 190.99 M263.61 190.99 C214.7 190.47, 166.38 189.84, 32 190.99 M32 190.99 C11.35 192.31, -0.55 179.88, 0 158.99 M32 190.99 C9.22 192.39, -0.74 181.51, 0 158.99 M0 158.99 C1.2 132.72, -1.62 102.92, 0 32 M0 158.99 C0.67 118.31, 0.96 76.94, 0 32 M0 32 C1.86 10.74, 11.88 -0.25, 32 0 M0 32 C1.98 12.77, 11.57 1.57, 32 0" stroke="#1971c2" stroke-width="1" fill="none"></path></g><g stroke-linecap="round" transform="translate(354.3323059082031 326.7537384033203) rotate(0 145.54190063476562 119.95974731445312)"><path d="M32 0 M32 0 C98.3 0.91, 164.42 -1.36, 259.08 0 M32 0 C104.37 -0.15, 176.92 -0.91, 259.08 0 M259.08 0 C279.26 0.82, 289.74 10.22, 291.08 32 M259.08 0 C282.03 -1.9, 293.29 8.94, 291.08 32 M291.08 32 C291.47 100.05, 288.92 171.81, 291.08 207.92 M291.08 32 C292.36 98.06, 292.49 164.48, 291.08 207.92 M291.08 207.92 C289.21 229.3, 278.45 241.1, 259.08 239.92 M291.08 207.92 C293.06 228.28, 280.96 238.61, 259.08 239.92 M259.08 239.92 C173.38 238.89, 91.66 238.41, 32 239.92 M259.08 239.92 C202.1 238.72, 144.51 238.1, 32 239.92 M32 239.92 C9.9 240.38, -1.19 228.95, 0 207.92 M32 239.92 C11.03 242.15, 1.34 229.28, 0 207.92 M0 207.92 C1.51 159.72, 0.19 112.95, 0 32 M0 207.92 C0.35 142.35, 1.62 77.1, 0 32 M0 32 C-1.57 10.44, 11.87 0.46, 32 0 M0 32 C-0.85 10.42, 12.67 -1.23, 32 0" stroke="#1971c2" stroke-width="1" fill="none"></path></g><g stroke-linecap="round" transform="translate(34.9585333930122 119.4915822347005) rotate(0 149.86384073893237 93.35688951280383)"><path d="M32 0 M32 0 C117.91 -0.54, 204.96 1.9, 267.73 0 M32 0 C103.32 -1.25, 174.46 -1.86, 267.73 0 M267.73 0 C290.75 0.64, 298.03 9.8, 299.73 32 M267.73 0 C290.87 -1.61, 299.37 9.81, 299.73 32 M299.73 32 C298.81 68.04, 298.26 106.54, 299.73 154.71 M299.73 32 C301.3 60.1, 300.84 88.55, 299.73 154.71 M299.73 154.71 C298.59 177.7, 290.36 185.49, 267.73 186.71 M299.73 154.71 C298.4 175.44, 289.4 188.36, 267.73 186.71 M267.73 186.71 C212.86 186.86, 159.34 186.69, 32 186.71 M267.73 186.71 C204.34 185.9, 141.1 186.39, 32 186.71 M32 186.71 C11.25 186.4, -0.87 174.31, 0 154.71 M32 186.71 C10.58 187.86, -2.29 175.39, 0 154.71 M0 154.71 C-0.31 110.6, 2.74 62.58, 0 32 M0 154.71 C-0.46 119.1, -1.43 84.31, 0 32 M0 32 C0.56 11.65, 11.21 -1.67, 32 0 M0 32 C-1.69 8.98, 12.25 -0.74, 32 0" stroke="#1971c2" stroke-width="1" fill="none"></path></g><g stroke-linecap="round" transform="translate(43.556610107421875 330.8324805365668) rotate(0 143.98422241210938 120.96212768554688)"><path d="M32 0 M32 0 C102.6 -1.45, 171.64 -1.41, 255.97 0 M32 0 C104.94 0.11, 176.92 -0.57, 255.97 0 M255.97 0 C275.91 0.95, 286.27 11.75, 287.97 32 M255.97 0 C278.39 -1.14, 288.91 12.09, 287.97 32 M287.97 32 C288.2 90.65, 287.77 152.61, 287.97 209.92 M287.97 32 C288.29 84.81, 286.74 139.48, 287.97 209.92 M287.97 209.92 C286.5 229.53, 277.57 243.62, 255.97 241.92 M287.97 209.92 C289.22 233.49, 279.2 243.35, 255.97 241.92 M255.97 241.92 C188.18 241.13, 123.21 239.03, 32 241.92 M255.97 241.92 C172.95 242.63, 89.07 243.1, 32 241.92 M32 241.92 C12.01 240.66, 0.28 232, 0 209.92 M32 241.92 C11.16 243.47, -1.87 229.94, 0 209.92 M0 209.92 C1.21 146.69, -0.78 84.68, 0 32 M0 209.92 C0.86 159.95, 0.35 108.07, 0 32 M0 32 C1.36 9.75, 10.18 1.72, 32 0 M0 32 C0.91 10.19, 9.97 -0.63, 32 0" stroke="#1971c2" stroke-width="1" fill="none"></path></g><g transform="translate(116.19851345486114 47.51482137044269) rotate(0 242.02984619140622 25)"><text x="0" y="0" font-family="Virgil, Segoe UI Emoji" font-size="20px" fill="#1971c2" text-anchor="start" style="white-space: pre;" direction="ltr" dominant-baseline="text-before-edge">GDP and Population Dashboard: Japan vs Korea</text><text x="0" y="25" font-family="Virgil, Segoe UI Emoji" font-size="20px" fill="#1971c2" text-anchor="start" style="white-space: pre;" direction="ltr" dominant-baseline="text-before-edge"></text></g><g stroke-linecap="round"><g transform="translate(73.43664550781244 145.10824076334694) rotate(0 -0.7499428724771633 68.80891229019083)"><path d="M0.44 -0.13 C0.28 22.61, -1.13 114.5, -1.46 137.23 M-0.78 -1.24 C-0.98 21.64, -1.77 115.8, -1.94 138.85" stroke="#1e1e1e" stroke-width="1" fill="none"></path></g></g><mask></mask><g stroke-linecap="round"><g transform="translate(57.11394585503467 264.09688822428444) rotate(0 128.9480482217949 -0.24007315773499727)"><path d="M1.12 -1.15 C43.8 -1.3, 212.84 0.01, 255.56 0.3 M0.24 0.86 C43.32 0.9, 214.85 -1.01, 257.65 -1.34" stroke="#1e1e1e" stroke-width="1" fill="none"></path></g></g><mask></mask><g stroke-linecap="round"><g transform="translate(392.1524658203125 148.90164354112483) rotate(0 -0.38360998688472137 71.61843505063507)"><path d="M1.12 1 C0.8 24.51, -1.49 118.05, -1.89 141.36 M0.26 0.48 C0.32 24.14, 0.84 119.21, 0.44 142.75" stroke="#1e1e1e" stroke-width="1" fill="none"></path></g></g><mask></mask><g stroke-linecap="round"><g transform="translate(373.1891818576388 267.2278900146491) rotate(0 127.90167899219887 0.4299419060165519)"><path d="M-0.15 0.98 C42.82 1.32, 214.74 1.39, 257.48 1.47 M-1.68 0.44 C41.18 0.45, 213.3 -0.95, 256.71 -0.54" stroke="#1e1e1e" stroke-width="1" fill="none"></path></g></g><mask></mask><g stroke-linecap="round"><g transform="translate(67.60602484809021 404.82978481716646) rotate(0 125.16132089574614 -2.0366926520953967)"><path d="M-0.12 -0.12 C41.5 -0.48, 207.74 -1.66, 249.69 -2.34 M-1.65 -1.23 C40.36 -1.89, 209.79 -3.6, 251.97 -3.95" stroke="#1e1e1e" stroke-width="1" fill="none"></path></g></g><mask></mask><g stroke-linecap="round"><g transform="translate(127.0699327256944 375.332850138347) rotate(0 -1.4579572306040234 92.55475353616083)"><path d="M0.17 1 C-0.06 31.56, -1.88 152.9, -2.23 183.67 M-1.2 0.48 C-1.5 31.13, -2.88 154.09, -3.08 184.63" stroke="#1e1e1e" stroke-width="1" fill="none"></path></g></g><mask></mask><g stroke-linecap="round"><g stroke-opacity="0.8" fill-opacity="0.8" transform="translate(239.78287760416663 370.8332706027568) rotate(0 -1.3925217487109762 94.90657042641865)"><path d="M-0.95 0.84 C-1.6 32.24, -3.31 158.32, -3.53 189.58 M0.75 0.23 C0.44 31.77, -0.73 156.16, -1.35 187.68" stroke="#1e1e1e" stroke-width="1" fill="none"></path></g></g><mask></mask><g stroke-opacity="0.8" fill-opacity="0.8" transform="translate(496.6911078559027 333.4459821912984) rotate(0 -53.71195475260413 117.12066650390625)" stroke="none"><path fill="#1e1e1e" d="M 2.60,0.51 Q 2.60,0.51 2.40,1.62 2.20,2.73 1.68,4.02 1.17,5.32 0.67,6.36 0.17,7.40 -0.31,9.02 -0.80,10.64 -0.94,12.10 -1.07,13.56 -1.04,14.94 -1.00,16.32 0.11,17.93 1.24,19.54 1.95,20.39 2.66,21.25 3.88,22.61 5.10,23.97 6.11,25.10 7.12,26.23 7.83,27.26 8.53,28.29 8.97,29.57 9.41,30.85 9.62,31.89 9.82,32.94 10.03,34.33 10.24,35.73 10.30,37.00 10.35,38.28 10.23,39.94 10.10,41.60 9.50,43.19 8.90,44.79 8.36,45.77 7.81,46.74 7.14,47.78 6.47,48.82 5.77,49.85 5.08,50.88 4.38,51.88 3.68,52.88 3.06,53.78 2.43,54.69 1.83,55.63 1.22,56.58 0.14,57.98 -0.93,59.38 -2.40,60.97 -3.88,62.56 -5.49,64.35 -7.09,66.14 -8.67,68.30 -10.24,70.45 -11.69,72.79 -13.15,75.14 -14.52,77.47 -15.90,79.81 -17.05,82.02 -18.20,84.23 -19.14,86.19 -20.07,88.14 -20.82,89.80 -21.56,91.47 -22.13,92.80 -22.71,94.14 -23.31,95.76 -23.91,97.39 -24.32,98.76 -24.73,100.12 -25.04,101.24 -25.35,102.37 -25.92,103.82 -26.48,105.27 -27.11,106.68 -27.75,108.09 -28.39,109.44 -29.03,110.78 -29.75,112.11 -30.48,113.43 -31.25,114.69 -32.02,115.95 -32.82,117.21 -33.62,118.47 -34.41,119.66 -35.20,120.86 -35.90,121.93 -36.59,123.01 -37.24,124.02 -37.88,125.04 -38.51,125.98 -39.14,126.91 -40.33,128.51 -41.52,130.12 -42.86,131.63 -44.20,133.15 -45.54,134.43 -46.89,135.71 -48.23,136.99 -49.56,138.27 -50.72,139.38 -51.88,140.48 -52.72,141.27 -53.56,142.05 -54.96,142.51 -56.36,142.97 -57.51,143.04 -58.66,143.10 -60.06,143.05 -61.46,143.00 -60.19,142.31 -58.91,141.62 -58.96,143.12 -59.01,144.62 -59.11,146.64 -59.22,148.66 -59.24,150.57 -59.27,152.47 -59.25,153.88 -59.24,155.29 -59.09,156.66 -58.94,158.04 -58.75,159.13 -58.55,160.21 -58.49,161.36 -58.44,162.52 -58.42,163.66 -58.41,164.81 -58.40,165.93 -58.39,167.05 -58.39,168.35 -58.39,169.64 -58.39,170.96 -58.39,172.27 -58.38,173.38 -58.37,174.48 -58.37,175.65 -58.37,176.82 -58.35,178.30 -58.34,179.77 -58.58,181.27 -58.82,182.77 -60.08,184.38 -61.34,185.98 -62.60,186.88 -63.86,187.77 -64.88,188.58 -65.90,189.38 -66.85,190.25 -67.80,191.12 -69.19,191.77 -70.58,192.43 -71.83,192.32 -73.08,192.20 -74.36,191.79 -75.63,191.37 -76.87,190.96 -78.11,190.54 -79.35,189.87 -80.58,189.20 -81.51,188.24 -82.45,187.28 -83.01,185.55 -83.58,183.82 -83.62,182.21 -83.65,180.60 -83.62,178.82 -83.60,177.05 -83.59,175.62 -83.58,174.19 -83.53,172.73 -83.48,171.27 -83.39,170.01 -83.31,168.74 -83.33,167.46 -83.35,166.18 -83.81,165.18 -84.27,164.19 -85.70,164.38 -87.13,164.56 -88.14,165.09 -89.15,165.63 -90.19,166.63 -91.23,167.64 -92.19,168.64 -93.14,169.63 -93.86,170.56 -94.57,171.49 -95.32,172.41 -96.07,173.34 -96.75,174.18 -97.42,175.03 -98.36,176.00 -99.31,176.98 -100.19,177.79 -101.07,178.59 -101.85,179.48 -102.63,180.36 -103.52,181.42 -104.42,182.48 -105.08,183.37 -105.74,184.26 -106.58,185.26 -107.41,186.25 -108.27,187.67 -109.12,189.08 -109.74,190.52 -110.36,191.97 -110.07,193.06 -109.79,194.15 -108.85,195.15 -107.92,196.14 -106.98,196.83 -106.05,197.52 -104.97,198.63 -103.89,199.74 -103.05,200.89 -102.20,202.03 -101.55,203.06 -100.90,204.09 -100.20,205.33 -99.49,206.56 -98.97,207.62 -98.45,208.68 -97.89,210.10 -97.34,211.52 -96.97,212.66 -96.61,213.79 -96.20,215.22 -95.79,216.65 -95.75,217.80 -95.71,218.96 -95.71,220.10 -95.70,221.24 -95.71,222.71 -95.71,224.18 -95.74,225.59 -95.77,227.01 -95.97,228.07 -96.18,229.13 -96.68,230.32 -97.17,231.50 -98.29,233.81 -99.41,236.12 -99.80,236.60 -100.19,237.09 -100.71,237.42 -101.23,237.76 -101.84,237.91 -102.44,238.06 -103.06,238.01 -103.67,237.96 -104.24,237.71 -104.81,237.47 -105.28,237.05 -105.74,236.64 -106.04,236.10 -106.35,235.56 -106.47,234.95 -106.58,234.34 -106.50,233.73 -106.42,233.11 -106.14,232.56 -105.87,232.00 -105.43,231.56 -104.99,231.13 -104.43,230.85 -103.88,230.57 -103.27,230.49 -102.65,230.41 -102.04,230.52 -101.43,230.64 -100.89,230.94 -100.35,231.25 -99.94,231.71 -99.52,232.17 -99.28,232.74 -99.03,233.31 -98.98,233.93 -98.93,234.54 -99.08,235.15 -99.23,235.75 -99.56,236.27 -99.90,236.79 -100.38,237.18 -100.86,237.57 -101.45,237.79 -102.03,238.00 -102.65,238.02 -103.27,238.03 -103.86,237.85 -104.45,237.67 -104.96,237.31 -105.46,236.95 -105.82,236.44 -106.18,235.94 -106.37,235.35 -106.55,234.76 -106.53,234.14 -106.52,233.52 -106.30,232.93 -106.09,232.35 -106.09,232.35 -106.09,232.35 -105.26,230.71 -104.43,229.07 -103.91,227.91 -103.39,226.75 -103.39,225.46 -103.39,224.18 -103.39,223.06 -103.40,221.93 -103.40,220.69 -103.39,219.44 -103.51,218.22 -103.62,217.01 -103.98,215.77 -104.33,214.53 -104.78,213.33 -105.23,212.12 -105.79,211.02 -106.35,209.91 -106.97,208.84 -107.60,207.76 -108.20,206.85 -108.80,205.94 -109.56,205.01 -110.31,204.08 -111.25,203.22 -112.19,202.36 -112.91,201.53 -113.64,200.70 -114.62,199.79 -115.61,198.87 -116.52,197.63 -117.42,196.38 -117.72,195.07 -118.01,193.76 -117.93,192.70 -117.84,191.64 -117.54,190.47 -117.23,189.31 -116.74,188.04 -116.25,186.78 -115.63,185.56 -115.02,184.33 -114.22,183.01 -113.42,181.69 -112.63,180.73 -111.84,179.77 -111.04,178.74 -110.24,177.70 -109.32,176.62 -108.41,175.55 -107.70,174.75 -106.99,173.96 -106.08,173.07 -105.18,172.18 -104.27,171.34 -103.35,170.50 -102.50,169.50 -101.66,168.49 -100.90,167.55 -100.14,166.62 -99.38,165.67 -98.63,164.71 -97.66,163.63 -96.68,162.54 -95.94,161.74 -95.21,160.94 -94.05,160.00 -92.89,159.06 -91.48,158.39 -90.07,157.72 -88.93,157.25 -87.79,156.78 -86.24,156.41 -84.69,156.05 -83.52,156.20 -82.35,156.36 -81.27,157.06 -80.18,157.76 -79.36,158.64 -78.55,159.52 -77.96,160.43 -77.37,161.33 -76.83,162.81 -76.30,164.28 -76.23,165.47 -76.17,166.65 -76.20,167.81 -76.23,168.96 -76.35,170.35 -76.48,171.74 -76.51,172.97 -76.55,174.19 -76.54,175.61 -76.53,177.04 -76.49,178.76 -76.45,180.49 -76.55,181.71 -76.66,182.93 -75.72,183.50 -74.78,184.08 -73.36,184.64 -71.93,185.20 -71.10,184.51 -70.27,183.82 -69.20,182.97 -68.14,182.12 -66.79,181.39 -65.43,180.66 -65.43,179.24 -65.42,177.82 -65.41,176.75 -65.40,175.68 -65.40,174.53 -65.39,173.38 -65.39,172.17 -65.39,170.96 -65.39,169.64 -65.39,168.32 -65.38,167.13 -65.38,165.94 -65.37,164.82 -65.37,163.71 -65.39,162.11 -65.41,160.52 -65.55,159.43 -65.70,158.35 -65.74,156.81 -65.79,155.28 -65.77,153.87 -65.75,152.45 -65.75,150.50 -65.76,148.55 -65.76,147.41 -65.76,146.27 -65.74,145.09 -65.71,143.92 -65.49,141.95 -65.27,139.98 -64.92,138.96 -64.58,137.95 -63.68,137.32 -62.78,136.69 -61.23,136.62 -59.67,136.54 -58.32,136.69 -56.97,136.84 -55.94,135.91 -54.92,134.98 -53.58,133.80 -52.25,132.63 -50.87,131.41 -49.49,130.19 -48.25,129.09 -47.00,127.99 -45.81,126.64 -44.61,125.28 -43.39,123.74 -42.16,122.19 -41.48,121.20 -40.79,120.21 -40.07,119.16 -39.34,118.11 -38.58,116.97 -37.82,115.82 -37.05,114.58 -36.27,113.34 -35.56,112.19 -34.85,111.03 -34.20,109.84 -33.55,108.65 -32.95,107.37 -32.35,106.08 -31.80,104.77 -31.24,103.46 -30.75,102.14 -30.27,100.82 -29.75,99.34 -29.24,97.86 -28.46,96.67 -27.68,95.47 -26.77,94.01 -25.86,92.55 -25.15,91.33 -24.44,90.10 -23.63,88.49 -22.81,86.88 -21.92,84.86 -21.03,82.83 -19.94,80.51 -18.84,78.18 -17.57,75.75 -16.29,73.32 -14.93,70.78 -13.57,68.24 -12.10,65.81 -10.63,63.37 -9.28,61.39 -7.93,59.40 -6.85,57.73 -5.78,56.06 -4.96,54.68 -4.14,53.30 -3.51,52.22 -2.88,51.15 -2.29,50.23 -1.70,49.31 -1.10,48.34 -0.50,47.38 0.09,46.35 0.68,45.33 1.21,44.38 1.74,43.43 2.34,42.17 2.94,40.92 3.18,39.61 3.42,38.29 3.44,36.99 3.47,35.68 3.29,34.33 3.11,32.97 2.72,31.59 2.33,30.21 1.47,29.15 0.61,28.08 -0.66,26.61 -1.94,25.13 -2.72,24.21 -3.51,23.30 -4.37,22.21 -5.24,21.13 -5.91,19.91 -6.58,18.69 -6.81,16.74 -7.05,14.80 -6.88,12.95 -6.72,11.09 -6.19,9.10 -5.66,7.10 -5.22,6.02 -4.77,4.94 -3.92,3.30 -3.07,1.66 -2.83,0.57 -2.60,-0.51 -2.50,-0.81 -2.40,-1.12 -2.23,-1.39 -2.06,-1.66 -1.83,-1.88 -1.60,-2.11 -1.33,-2.27 -1.05,-2.43 -0.75,-2.52 -0.44,-2.61 -0.12,-2.63 0.19,-2.64 0.50,-2.58 0.82,-2.52 1.11,-2.38 1.40,-2.25 1.65,-2.05 1.90,-1.85 2.09,-1.59 2.28,-1.34 2.41,-1.04 2.54,-0.75 2.59,-0.44 2.65,-0.12 2.62,0.19 2.60,0.51 2.60,0.51 L 2.60,0.51 Z"></path></g><g stroke-opacity="0.8" fill-opacity="0.8" transform="translate(543.6955023871527 368.9533877902568) rotate(0 8.855997721354186 38.276265462239564)" stroke="none"><path fill="#1e1e1e" d="M 1.89,-0.10 Q 1.89,-0.10 2.03,1.20 2.17,2.51 2.20,4.21 2.24,5.92 2.36,7.22 2.48,8.53 2.45,10.77 2.43,13.01 2.44,14.90 2.46,16.79 2.46,18.66 2.47,20.53 2.44,22.50 2.41,24.48 2.38,26.46 2.36,28.45 2.33,30.45 2.31,32.45 2.26,34.61 2.21,36.78 2.17,39.12 2.14,41.47 2.11,43.86 2.08,46.26 2.06,48.45 2.04,50.64 2.08,52.56 2.11,54.48 2.21,56.78 2.30,59.09 2.51,60.80 2.72,62.50 2.93,64.01 3.14,65.53 3.35,66.83 3.55,68.14 3.97,69.71 4.40,71.28 4.79,72.76 5.19,74.24 5.49,72.55 5.79,70.86 6.45,69.99 7.12,69.13 7.60,67.86 8.07,66.58 8.11,65.41 8.14,64.23 8.13,63.03 8.12,61.83 8.10,60.66 8.08,59.49 8.08,57.95 8.08,56.41 8.07,55.12 8.06,53.83 8.04,52.74 8.02,51.65 8.00,50.04 7.97,48.43 7.98,46.93 7.98,45.42 8.03,44.24 8.07,43.06 8.91,41.05 9.75,39.04 10.43,38.04 11.12,37.05 12.19,35.50 13.26,33.94 13.59,32.36 13.91,30.77 13.92,29.30 13.93,27.84 13.93,26.46 13.93,25.08 14.01,23.29 14.09,21.51 14.19,20.16 14.28,18.82 14.24,17.42 14.19,16.03 13.04,15.15 11.89,14.27 10.33,12.83 8.77,11.39 7.31,9.79 5.85,8.19 4.89,7.37 3.93,6.55 2.95,6.13 1.96,5.72 -0.23,4.04 -2.42,2.37 -2.74,1.92 -3.05,1.47 -3.21,0.94 -3.37,0.42 -3.34,-0.12 -3.32,-0.67 -3.13,-1.19 -2.93,-1.70 -2.58,-2.12 -2.24,-2.55 -1.77,-2.84 -1.30,-3.13 -0.77,-3.26 -0.23,-3.38 0.30,-3.33 0.85,-3.28 1.35,-3.06 1.86,-2.84 2.26,-2.47 2.67,-2.09 2.93,-1.61 3.20,-1.13 3.29,-0.59 3.39,-0.05 3.31,0.48 3.23,1.03 2.98,1.52 2.73,2.01 2.34,2.39 1.95,2.78 1.45,3.01 0.96,3.25 0.41,3.32 -0.12,3.39 -0.66,3.28 -1.20,3.17 -1.68,2.89 -2.15,2.62 -2.51,2.21 -2.88,1.79 -3.09,1.29 -3.30,0.78 -3.34,0.23 -3.38,-0.31 -3.24,-0.84 -3.10,-1.37 -2.80,-1.83 -2.50,-2.29 -2.07,-2.63 -1.63,-2.97 -1.12,-3.15 -0.60,-3.34 -0.05,-3.35 0.49,-3.36 1.01,-3.19 1.54,-3.02 1.98,-2.70 2.42,-2.37 2.42,-2.37 2.42,-2.37 4.09,-1.10 5.76,0.17 7.22,1.08 8.69,1.99 9.65,2.93 10.61,3.87 11.93,5.25 13.24,6.63 14.69,7.90 16.14,9.17 16.96,9.85 17.78,10.53 18.69,11.49 19.60,12.45 20.18,13.70 20.77,14.96 20.91,17.04 21.04,19.13 20.92,20.57 20.81,22.02 20.76,23.56 20.70,25.09 20.69,26.50 20.69,27.91 20.64,28.99 20.60,30.07 20.46,31.58 20.31,33.10 20.01,34.46 19.71,35.83 18.75,37.50 17.79,39.17 16.77,40.72 15.76,42.26 15.30,43.84 14.83,45.42 14.84,46.93 14.85,48.43 14.82,50.04 14.80,51.65 14.78,52.74 14.76,53.83 14.75,55.12 14.74,56.41 14.74,57.95 14.73,59.50 14.71,60.69 14.68,61.88 14.64,63.16 14.60,64.43 14.45,66.27 14.30,68.11 13.68,69.77 13.05,71.43 11.97,72.95 10.89,74.47 10.18,75.51 9.46,76.55 8.54,77.72 7.62,78.89 6.30,79.15 4.97,79.42 3.88,79.28 2.80,79.14 1.68,78.11 0.56,77.08 0.39,75.98 0.21,74.88 0.15,73.54 0.08,72.19 -0.05,70.34 -0.19,68.50 -0.23,67.16 -0.27,65.83 -0.33,64.29 -0.39,62.76 -0.47,61.00 -0.55,59.24 -0.70,56.86 -0.84,54.48 -0.81,52.56 -0.78,50.64 -0.80,48.45 -0.82,46.26 -0.85,43.86 -0.87,41.47 -0.91,39.12 -0.95,36.78 -1.00,34.62 -1.05,32.45 -1.08,30.45 -1.10,28.45 -1.14,26.47 -1.17,24.49 -1.21,22.53 -1.25,20.56 -1.28,18.71 -1.31,16.86 -1.36,15.01 -1.42,13.16 -1.61,10.95 -1.81,8.75 -1.82,7.37 -1.84,5.99 -1.86,4.36 -1.89,2.73 -1.89,1.41 -1.89,0.10 -1.88,-0.12 -1.86,-0.35 -1.79,-0.57 -1.72,-0.79 -1.60,-0.98 -1.48,-1.18 -1.32,-1.34 -1.15,-1.50 -0.96,-1.61 -0.76,-1.73 -0.54,-1.80 -0.32,-1.86 -0.10,-1.88 0.12,-1.89 0.35,-1.85 0.57,-1.80 0.78,-1.71 0.99,-1.61 1.17,-1.47 1.35,-1.33 1.49,-1.15 1.63,-0.97 1.72,-0.76 1.81,-0.55 1.85,-0.32 1.89,-0.10 1.89,-0.10 L 1.89,-0.10 Z"></path></g><g stroke-opacity="0.8" fill-opacity="0.8" transform="translate(542.4456380208333 460.49296569824287) rotate(0 -1.7940945095485858 10.091179741753479)" stroke="none"><path fill="#1e1e1e" d="M 0,-2.67 Q 0,-2.67 1.20,-2.68 2.40,-2.69 4.27,-2.51 6.14,-2.32 7.12,-1.86 8.09,-1.41 9.53,-0.34 10.96,0.71 12.02,1.44 13.07,2.16 14.12,3.21 15.17,4.27 15.95,5.42 16.73,6.58 17.33,7.82 17.93,9.07 18.28,10.61 18.62,12.15 18.69,13.41 18.76,14.67 18.76,15.81 18.75,16.94 18.31,17.97 17.88,19.00 16.98,19.81 16.08,20.63 14.07,21.02 12.06,21.40 11.01,21.52 9.95,21.64 8.17,22.00 6.38,22.36 4.49,22.70 2.60,23.04 0.62,23.21 -1.34,23.37 -2.43,23.38 -3.51,23.39 -4.69,23.37 -5.86,23.35 -7.08,23.33 -8.29,23.30 -9.52,23.18 -10.75,23.06 -11.87,22.82 -12.99,22.58 -14.50,22.17 -16.01,21.76 -17.02,21.38 -18.02,20.99 -19.16,20.04 -20.29,19.09 -20.99,17.72 -21.68,16.35 -22.02,14.91 -22.35,13.46 -22.40,12.37 -22.44,11.29 -22.46,9.87 -22.49,8.46 -22.35,7.34 -22.21,6.23 -21.04,4.84 -19.87,3.45 -18.48,2.52 -17.08,1.59 -15.06,0.73 -13.03,-0.11 -11.94,-0.38 -10.84,-0.65 -9.76,-0.84 -8.67,-1.02 -6.95,-1.15 -5.23,-1.29 -4.05,-1.32 -2.87,-1.36 -2.87,-1.53 -2.87,-1.70 -2.53,-2.12 -2.18,-2.53 -1.71,-2.82 -1.25,-3.10 -0.72,-3.22 -0.20,-3.34 0.33,-3.28 0.87,-3.23 1.36,-3.00 1.86,-2.78 2.25,-2.41 2.65,-2.04 2.91,-1.56 3.16,-1.08 3.25,-0.55 3.34,-0.01 3.26,0.51 3.17,1.05 2.92,1.53 2.67,2.01 2.28,2.38 1.89,2.76 1.40,2.99 0.91,3.22 0.37,3.28 -0.16,3.34 -0.69,3.23 -1.22,3.11 -1.68,2.84 -2.15,2.56 -2.50,2.15 -2.85,1.74 -3.06,1.24 -3.26,0.73 -3.29,0.19 -3.33,-0.34 -3.18,-0.86 -3.04,-1.38 -2.74,-1.83 -2.44,-2.28 -2.01,-2.61 -1.58,-2.94 -1.07,-3.12 -0.56,-3.30 -0.01,-3.30 0.52,-3.30 1.03,-3.13 1.55,-2.96 1.98,-2.64 2.41,-2.31 2.72,-1.86 3.03,-1.42 3.17,-0.90 3.32,-0.38 3.30,0.16 3.27,0.70 3.07,1.20 2.87,1.71 2.87,1.70 2.87,1.70 0.38,3.59 -2.11,5.47 -3.52,5.46 -4.92,5.46 -6.19,5.54 -7.46,5.61 -9.11,6.01 -10.76,6.40 -11.97,6.92 -13.19,7.43 -14.35,7.94 -15.51,8.45 -15.53,9.83 -15.55,11.21 -15.53,12.36 -15.51,13.51 -14.78,14.62 -14.05,15.72 -12.82,16.11 -11.59,16.50 -9.95,16.77 -8.31,17.04 -7.11,17.01 -5.91,16.98 -4.77,16.94 -3.64,16.91 -1.85,16.83 -0.06,16.76 1.57,16.53 3.21,16.30 4.99,15.87 6.76,15.44 8.93,15.04 11.09,14.63 12.14,14.51 13.20,14.39 12.58,15.47 11.97,16.54 12.00,15.17 12.03,13.80 11.94,12.68 11.86,11.56 11.29,10.28 10.73,8.99 10.04,8.03 9.36,7.07 8.28,6.22 7.20,5.37 5.96,4.26 4.73,3.16 3.56,2.93 2.40,2.69 1.20,2.68 0,2.67 -0.32,2.63 -0.64,2.59 -0.94,2.48 -1.24,2.37 -1.51,2.18 -1.77,2.00 -1.98,1.76 -2.20,1.52 -2.35,1.23 -2.50,0.94 -2.58,0.63 -2.65,0.32 -2.65,-0.00 -2.65,-0.32 -2.58,-0.63 -2.50,-0.94 -2.35,-1.23 -2.20,-1.52 -1.98,-1.76 -1.77,-2.00 -1.50,-2.18 -1.24,-2.37 -0.94,-2.48 -0.64,-2.60 -0.32,-2.63 0.00,-2.67 0.00,-2.67 L 0,-2.67 Z"></path></g><g stroke-opacity="0.8" fill-opacity="0.8" transform="translate(530.6921657986111 494.4597083197707) rotate(0 -29.052090115017393 23.81571451822913)" stroke="none"><path fill="#1e1e1e" d="M 2.46,0 Q 2.46,0 2.33,2.03 2.21,4.07 2.21,5.68 2.20,7.29 2.23,8.74 2.25,10.18 2.14,11.69 2.02,13.20 1.83,14.57 1.63,15.95 1.47,17.07 1.30,18.20 0.82,20.04 0.33,21.87 -0.26,23.25 -0.87,24.63 -1.68,25.69 -2.49,26.75 -3.32,27.43 -4.15,28.11 -5.52,28.93 -6.89,29.75 -8.09,30.15 -9.30,30.55 -10.43,30.91 -11.56,31.26 -12.74,31.77 -13.93,32.28 -15.06,32.93 -16.19,33.59 -17.79,34.42 -19.40,35.25 -20.38,35.71 -21.37,36.18 -22.42,36.67 -23.48,37.17 -25.11,38.24 -26.74,39.32 -28.18,40.75 -29.62,42.17 -30.79,43.60 -31.96,45.04 -33.11,46.35 -34.26,47.67 -35.91,48.50 -37.56,49.34 -39.33,49.81 -41.10,50.28 -42.34,50.44 -43.57,50.60 -44.97,50.67 -46.37,50.74 -47.48,50.93 -48.59,51.12 -50.09,51.13 -51.58,51.15 -52.96,51.14 -54.34,51.14 -55.62,51.16 -56.90,51.17 -58.71,50.50 -60.51,49.84 -61.05,48.91 -61.58,47.99 -61.64,46.90 -61.70,45.81 -61.54,44.62 -61.38,43.43 -61.26,41.74 -61.14,40.05 -60.61,38.58 -60.08,37.11 -59.39,35.87 -58.70,34.63 -57.37,33.29 -56.05,31.95 -54.34,31.12 -52.62,30.28 -51.39,29.92 -50.17,29.56 -48.84,29.00 -47.52,28.44 -46.62,27.74 -45.71,27.04 -44.25,26.07 -42.79,25.11 -41.68,24.42 -40.57,23.72 -39.71,22.93 -38.85,22.13 -37.55,20.80 -36.24,19.46 -34.44,18.00 -32.64,16.55 -31.57,15.97 -30.50,15.39 -29.12,14.45 -27.74,13.51 -26.55,12.28 -25.36,11.06 -24.30,9.90 -23.25,8.74 -22.13,7.81 -21.02,6.89 -19.88,6.17 -18.75,5.46 -17.54,4.65 -16.33,3.83 -14.98,3.06 -13.62,2.30 -12.46,1.25 -11.29,0.20 -10.04,-0.64 -8.79,-1.49 -7.60,-2.06 -6.41,-2.62 -5.25,-2.97 -4.09,-3.31 -2.02,-3.43 0.05,-3.55 0.62,-3.45 1.18,-3.35 1.69,-3.07 2.19,-2.79 2.58,-2.37 2.97,-1.94 3.20,-1.42 3.44,-0.89 3.49,-0.32 3.54,0.24 3.41,0.80 3.28,1.36 2.97,1.85 2.67,2.34 2.22,2.71 1.78,3.07 1.24,3.27 0.70,3.48 0.13,3.50 -0.44,3.52 -0.99,3.36 -1.54,3.20 -2.01,2.87 -2.48,2.54 -2.82,2.07 -3.16,1.61 -3.34,1.06 -3.51,0.51 -3.50,-0.05 -3.49,-0.63 -3.30,-1.17 -3.11,-1.71 -2.75,-2.16 -2.40,-2.62 -1.92,-2.93 -1.43,-3.25 -0.88,-3.39 -0.32,-3.53 0.24,-3.49 0.82,-3.45 1.35,-3.23 1.88,-3.01 2.31,-2.63 2.74,-2.25 3.03,-1.75 3.32,-1.26 3.43,-0.69 3.55,-0.13 3.48,0.43 3.40,1.00 3.15,1.52 2.90,2.04 2.50,2.45 2.10,2.86 1.59,3.12 1.07,3.38 0.51,3.47 -0.05,3.55 -0.05,3.55 -0.05,3.55 -2.21,3.83 -4.36,4.11 -5.36,4.56 -6.37,5.01 -7.24,5.88 -8.12,6.75 -9.30,7.52 -10.49,8.28 -11.51,8.83 -12.53,9.37 -13.89,10.28 -15.24,11.19 -16.53,11.96 -17.82,12.72 -18.62,13.45 -19.43,14.18 -20.69,15.58 -21.94,16.98 -22.76,17.80 -23.58,18.62 -25.42,19.93 -27.25,21.25 -28.60,22.10 -29.94,22.95 -31.18,24.27 -32.42,25.59 -33.55,26.86 -34.67,28.13 -35.69,28.89 -36.70,29.65 -37.84,30.37 -38.98,31.10 -40.04,31.81 -41.09,32.52 -42.20,33.39 -43.30,34.26 -44.37,34.83 -45.45,35.41 -46.73,35.89 -48.01,36.38 -49.42,36.80 -50.83,37.21 -51.70,37.84 -52.57,38.47 -53.16,39.62 -53.75,40.76 -53.97,41.99 -54.18,43.23 -54.86,44.27 -55.55,45.32 -56.66,44.71 -57.77,44.09 -56.67,44.12 -55.57,44.15 -54.27,44.15 -52.98,44.15 -51.60,44.15 -50.22,44.14 -48.89,44.08 -47.56,44.02 -46.30,43.99 -45.05,43.97 -43.76,43.93 -42.48,43.90 -41.16,43.58 -39.84,43.26 -38.64,42.61 -37.44,41.95 -36.53,40.92 -35.62,39.90 -34.90,38.99 -34.17,38.08 -33.31,37.10 -32.44,36.13 -31.53,35.29 -30.63,34.45 -29.56,33.60 -28.49,32.74 -27.41,32.09 -26.34,31.44 -25.29,30.89 -24.25,30.34 -23.26,29.82 -22.27,29.31 -20.91,28.60 -19.55,27.89 -18.14,27.11 -16.72,26.33 -15.07,25.67 -13.42,25.01 -11.76,24.60 -10.11,24.19 -9.10,23.79 -8.09,23.39 -7.14,22.86 -6.19,22.32 -5.40,21.19 -4.61,20.06 -4.06,18.68 -3.51,17.31 -3.27,16.23 -3.03,15.16 -2.79,13.96 -2.56,12.76 -2.40,11.47 -2.25,10.18 -2.23,8.73 -2.20,7.29 -2.21,5.68 -2.21,4.07 -2.33,2.03 -2.46,0 -2.42,-0.29 -2.39,-0.58 -2.28,-0.86 -2.18,-1.14 -2.01,-1.38 -1.84,-1.63 -1.62,-1.82 -1.39,-2.02 -1.13,-2.16 -0.87,-2.30 -0.58,-2.37 -0.29,-2.44 0.00,-2.44 0.29,-2.44 0.58,-2.37 0.87,-2.30 1.13,-2.16 1.39,-2.02 1.62,-1.82 1.84,-1.63 2.01,-1.38 2.18,-1.14 2.28,-0.86 2.39,-0.58 2.42,-0.29 2.46,0.00 2.46,0.00 L 2.46,0 Z"></path></g><g stroke-opacity="0.8" fill-opacity="0.8" transform="translate(459.97737630208326 548.3281165228956) rotate(0 5.5029296875 6.89666748046875)" stroke="none"><path fill="#1e1e1e" d="M 0,-2.64 Q 0,-2.64 1.11,-2.66 2.22,-2.68 3.97,-2.72 5.72,-2.77 7.46,-2.41 9.20,-2.04 10.35,-1.40 11.50,-0.76 12.26,0.64 13.02,2.04 13.42,3.40 13.83,4.75 13.92,5.90 14.01,7.05 14.21,8.32 14.41,9.58 13.31,12.79 12.21,16.00 11.79,16.37 11.37,16.74 10.85,16.95 10.33,17.17 9.77,17.21 9.21,17.25 8.66,17.11 8.12,16.96 7.65,16.66 7.18,16.35 6.83,15.90 6.48,15.46 6.30,14.93 6.11,14.40 6.10,13.84 6.09,13.28 6.26,12.74 6.44,12.21 6.77,11.75 7.10,11.30 7.56,10.98 8.02,10.66 8.56,10.50 9.10,10.34 9.66,10.36 10.23,10.38 10.75,10.58 11.28,10.78 11.71,11.14 12.14,11.50 12.44,11.98 12.74,12.45 12.87,13.00 13.00,13.55 12.94,14.11 12.89,14.67 12.66,15.18 12.43,15.70 12.05,16.11 11.67,16.52 11.18,16.79 10.69,17.06 10.13,17.16 9.58,17.26 9.02,17.18 8.47,17.10 7.97,16.84 7.47,16.59 7.07,16.18 6.68,15.78 6.44,15.27 6.20,14.77 6.13,14.21 6.06,13.65 6.17,13.10 6.28,12.55 6.57,12.06 6.85,11.58 6.85,11.58 6.85,11.58 7.16,10.39 7.48,9.20 7.44,7.62 7.40,6.05 7.53,4.92 7.67,3.78 6.62,3.31 5.58,2.85 3.90,2.76 2.22,2.68 1.11,2.66 0,2.64 -0.31,2.60 -0.63,2.56 -0.92,2.45 -1.22,2.33 -1.48,2.15 -1.75,1.97 -1.96,1.73 -2.17,1.49 -2.32,1.21 -2.46,0.93 -2.54,0.62 -2.62,0.31 -2.62,-0.00 -2.62,-0.31 -2.54,-0.62 -2.46,-0.93 -2.32,-1.21 -2.17,-1.49 -1.96,-1.73 -1.75,-1.97 -1.48,-2.15 -1.22,-2.33 -0.92,-2.45 -0.63,-2.56 -0.31,-2.60 0.00,-2.64 0.00,-2.64 L 0,-2.64 Z"></path></g><g stroke-opacity="0.8" fill-opacity="0.8" transform="translate(456.28434244791663 552.351893107097) rotate(0 -2.2747802734375 4.764845106336793)" stroke="none"><path fill="#1e1e1e" d="M 2.09,1.47 Q 2.09,1.47 1.53,2.33 0.96,3.19 0.38,4.22 -0.20,5.25 -0.61,6.28 -1.02,7.32 -1.25,8.45 -1.47,9.59 -1.56,10.08 -1.65,10.57 -1.89,11.00 -2.13,11.44 -2.50,11.77 -2.87,12.11 -3.33,12.31 -3.78,12.51 -4.28,12.55 -4.78,12.59 -5.26,12.48 -5.74,12.36 -6.17,12.09 -6.59,11.83 -6.90,11.44 -7.22,11.05 -7.39,10.59 -7.56,10.12 -7.58,9.62 -7.60,9.13 -7.45,8.65 -7.31,8.17 -7.02,7.77 -6.73,7.36 -6.33,7.07 -5.93,6.77 -5.45,6.63 -4.98,6.48 -4.48,6.49 -3.98,6.50 -3.51,6.67 -3.04,6.84 -2.65,7.15 -2.27,7.46 -1.99,7.87 -1.72,8.29 -1.60,8.78 -1.48,9.26 -1.52,9.75 -1.55,10.25 -1.75,10.71 -1.94,11.17 -2.27,11.54 -2.60,11.91 -3.04,12.16 -3.47,12.41 -3.96,12.50 -4.44,12.60 -4.94,12.54 -5.43,12.47 -5.88,12.25 -6.33,12.03 -6.68,11.68 -7.03,11.33 -7.26,10.89 -7.48,10.44 -7.55,9.95 -7.62,9.46 -7.62,9.46 -7.62,9.46 -6.86,6.77 -6.10,4.09 -5.52,3.14 -4.95,2.20 -4.14,1.18 -3.33,0.16 -2.71,-0.65 -2.09,-1.47 -1.88,-1.70 -1.67,-1.93 -1.42,-2.10 -1.16,-2.27 -0.87,-2.38 -0.58,-2.49 -0.28,-2.52 0.02,-2.55 0.32,-2.51 0.63,-2.47 0.92,-2.36 1.21,-2.25 1.46,-2.07 1.71,-1.90 1.91,-1.66 2.12,-1.43 2.26,-1.16 2.40,-0.88 2.47,-0.58 2.54,-0.28 2.54,0.02 2.53,0.33 2.46,0.63 2.38,0.93 2.23,1.20 2.09,1.47 2.09,1.47 L 2.09,1.47 Z"></path></g><g stroke-opacity="0.8" fill-opacity="0.8" transform="translate(454.47871907552076 552.6085798475484) rotate(0 2.0564778645833712 -0.15641954210070708)" stroke="none"><path fill="#1e1e1e" d="M -0.13,-2.33 Q -0.13,-2.33 0.51,-2.43 1.17,-2.52 2.35,-2.77 3.53,-3.01 3.74,-3.03 3.95,-3.05 4.28,-3.02 4.61,-2.98 4.92,-2.86 5.23,-2.75 5.50,-2.57 5.78,-2.38 6.00,-2.13 6.22,-1.89 6.38,-1.60 6.53,-1.31 6.62,-0.99 6.70,-0.67 6.70,-0.33 6.71,-0.00 6.63,0.31 6.55,0.63 6.40,0.92 6.25,1.22 6.03,1.47 5.82,1.72 5.55,1.91 5.28,2.10 4.97,2.22 4.66,2.34 4.33,2.38 4.00,2.43 2.10,2.43 0.19,2.43 -0.20,2.40 -0.59,2.36 -0.95,2.21 -1.32,2.05 -1.61,1.78 -1.90,1.52 -2.10,1.17 -2.29,0.83 -2.36,0.44 -2.44,0.05 -2.38,-0.33 -2.33,-0.72 -2.15,-1.07 -1.97,-1.43 -1.69,-1.70 -1.41,-1.98 -1.06,-2.16 -0.70,-2.33 -0.31,-2.38 0.07,-2.44 0.46,-2.36 0.84,-2.28 1.19,-2.09 1.53,-1.89 1.79,-1.60 2.06,-1.30 2.21,-0.94 2.37,-0.58 2.40,-0.18 2.43,0.20 2.33,0.58 2.24,0.97 2.02,1.30 1.81,1.63 1.50,1.88 1.19,2.12 0.82,2.26 0.45,2.39 0.05,2.40 -0.33,2.41 -0.71,2.30 -1.09,2.18 -1.41,1.95 -1.73,1.72 -1.96,1.39 -2.19,1.07 -2.30,0.69 -2.42,0.32 -2.40,-0.07 -2.39,-0.46 -2.25,-0.83 -2.12,-1.20 -1.87,-1.51 -1.62,-1.82 -1.29,-2.03 -0.95,-2.24 -0.57,-2.34 -0.19,-2.43 -0.19,-2.43 -0.19,-2.43 1.88,-2.74 3.95,-3.05 4.28,-3.02 4.61,-2.98 4.92,-2.86 5.23,-2.75 5.50,-2.57 5.78,-2.38 6.00,-2.14 6.22,-1.89 6.38,-1.60 6.53,-1.31 6.62,-0.99 6.70,-0.67 6.70,-0.34 6.71,-0.00 6.63,0.31 6.55,0.63 6.40,0.92 6.25,1.22 6.04,1.47 5.82,1.72 5.55,1.91 5.28,2.10 4.97,2.22 4.66,2.34 4.33,2.38 4.00,2.43 3.82,2.41 3.64,2.39 2.55,2.38 1.45,2.37 0.79,2.35 0.13,2.33 -0.14,2.32 -0.42,2.30 -0.69,2.21 -0.96,2.13 -1.20,1.98 -1.45,1.84 -1.64,1.64 -1.84,1.44 -1.99,1.19 -2.14,0.95 -2.22,0.68 -2.30,0.41 -2.32,0.13 -2.33,-0.14 -2.28,-0.42 -2.23,-0.70 -2.11,-0.96 -2.00,-1.21 -1.82,-1.44 -1.65,-1.66 -1.42,-1.83 -1.20,-2.00 -0.94,-2.12 -0.69,-2.23 -0.41,-2.28 -0.13,-2.33 -0.13,-2.33 L -0.13,-2.33 Z"></path></g><g stroke-opacity="0.3" fill-opacity="0.3" transform="translate(478.32874891493054 352.8395640055345) rotate(0 -49.195793999566035 95.3732299804688)" stroke="none"><path fill="#1e1e1e" d="M 10.22,0 Q 10.22,0 10.32,4.62 10.42,9.25 10.73,15.06 11.05,20.86 11.42,25.44 11.78,30.02 6.90,25.60 2.01,21.18 -2.15,22.61 -6.33,24.03 -5.20,19.67 -4.07,15.30 -1.03,11.84 1.99,8.38 -0.31,13.00 -2.62,17.63 -4.84,13.56 -7.06,9.50 -8.42,5.46 -9.78,1.43 -10.03,-3.01 -10.27,-7.45 -6.57,-3.01 -2.86,1.42 -6.64,4.35 -10.42,7.28 -15.16,7.68 -19.90,8.07 -25.11,8.15 -30.33,8.22 -34.74,8.26 -39.15,8.29 -43.51,8.30 -47.87,8.31 -52.44,8.12 -57.00,7.93 -62.26,7.35 -67.52,6.76 -70.00,6.45 -72.49,6.13 -74.30,5.84 -76.12,5.54 -77.81,4.82 -79.50,4.10 -80.96,2.99 -82.43,1.89 -83.59,0.46 -84.75,-0.95 -85.54,-2.61 -86.33,-4.27 -86.69,-6.07 -87.06,-7.87 -86.98,-9.71 -86.91,-11.55 -86.40,-13.31 -85.88,-15.08 -84.96,-16.67 -84.04,-18.26 -82.77,-19.58 -81.49,-20.91 -79.94,-21.89 -78.39,-22.87 -76.64,-23.45 -74.90,-24.03 -73.07,-24.17 -71.24,-24.32 -66.18,-24.44 -61.12,-24.57 -56.64,-24.86 -52.16,-25.15 -47.76,-25.41 -43.35,-25.67 -38.97,-26.12 -34.58,-26.57 -32.78,-26.75 -30.97,-26.94 -29.16,-26.76 -27.34,-26.57 -25.62,-25.96 -23.90,-25.34 -22.38,-24.34 -20.86,-23.33 -19.62,-21.99 -18.38,-20.64 -17.51,-19.05 -16.63,-17.45 -16.16,-15.68 -15.68,-13.92 -15.65,-12.09 -15.61,-10.27 -16.02,-8.49 -16.42,-6.71 -17.23,-5.08 -18.05,-3.44 -19.24,-2.06 -20.42,-0.67 -21.90,0.39 -23.38,1.46 -25.08,2.14 -26.77,2.82 -28.58,3.07 -30.38,3.33 -35.69,3.31 -40.99,3.29 -45.41,3.25 -49.82,3.20 -54.16,3.16 -58.50,3.13 -64.13,3.17 -69.76,3.22 -74.04,4.20 -78.32,5.18 -83.11,5.89 -87.90,6.60 -92.31,9.19 -96.72,11.77 -101.03,12.17 -105.33,12.57 -110.16,11.51 -114.98,10.44 -118.86,5.83 -122.73,1.22 -122.08,-5.36 -121.43,-11.96 -117.24,-15.86 -113.05,-19.76 -108.24,-21.38 -103.42,-22.99 -96.71,-20.98 -90.00,-18.97 -86.98,-15.73 -83.96,-12.48 -83.52,-7.30 -83.08,-2.13 -83.56,4.16 -84.05,10.46 -84.92,16.02 -85.79,21.59 -86.32,26.46 -86.86,31.33 -87.35,36.86 -87.85,42.40 -88.22,47.18 -88.58,51.97 -88.73,56.58 -88.87,61.19 -89.11,66.82 -89.34,72.44 -89.83,77.01 -90.32,81.58 -90.58,86.95 -90.83,92.32 -91.19,96.98 -91.56,101.64 -91.84,106.73 -92.12,111.83 -92.11,116.16 -92.10,120.49 -92.09,125.28 -92.09,130.08 -92.05,134.68 -92.02,139.28 -92.01,143.70 -92.01,148.12 -91.99,152.76 -91.97,157.39 -92.05,162.82 -92.13,168.24 -92.47,172.82 -92.81,177.40 -93.05,181.68 -93.28,185.96 -97.27,183.18 -101.27,180.41 -97.43,182.77 -93.60,185.13 -90.11,188.44 -86.63,191.76 -89.84,204.17 -93.04,216.59 -97.75,217.22 -102.46,217.85 -108.49,213.75 -114.52,209.66 -116.67,204.72 -118.83,199.78 -119.81,194.87 -120.80,189.96 -121.22,184.90 -121.64,179.84 -121.70,175.15 -121.76,170.46 -121.22,166.21 -120.69,161.97 -118.68,157.44 -116.66,152.91 -112.64,148.38 -108.62,143.85 -105.69,140.77 -102.76,137.70 -99.09,134.57 -95.43,131.44 -91.11,128.54 -86.79,125.65 -82.73,123.26 -78.66,120.88 -74.14,119.71 -69.62,118.54 -64.72,118.90 -59.83,119.25 -55.54,122.04 -51.26,124.83 -49.17,129.17 -47.09,133.51 -45.29,138.33 -43.49,143.16 -43.44,142.98 -43.39,142.79 -42.61,144.51 -41.83,146.24 -41.49,148.10 -41.15,149.96 -41.27,151.85 -41.38,153.74 -41.94,155.55 -42.51,157.35 -43.49,158.97 -44.47,160.59 -45.81,161.93 -47.14,163.27 -48.76,164.25 -50.38,165.22 -52.19,165.79 -54.00,166.35 -55.88,166.46 -57.77,166.58 -59.63,166.24 -61.50,165.89 -63.22,165.12 -64.95,164.34 -66.44,163.17 -67.93,162.00 -69.09,160.52 -70.26,159.03 -70.53,151.53 -70.79,144.04 -71.59,138.78 -72.38,133.53 -71.81,128.63 -71.23,123.73 -69.44,119.46 -67.65,115.19 -64.85,111.38 -62.05,107.58 -58.76,104.51 -55.47,101.44 -51.78,99.16 -48.10,96.88 -44.97,93.11 -41.84,89.35 -39.06,84.76 -36.29,80.17 -34.13,75.60 -31.98,71.03 -30.09,67.15 -28.20,63.26 -26.57,59.23 -24.93,55.20 -23.47,51.04 -22.01,46.88 -20.03,40.68 -18.04,34.49 -12.51,39.35 -6.98,44.21 -2.04,44.16 2.88,44.12 -0.81,49.72 -4.51,55.33 -8.57,61.36 -12.64,67.38 -16.44,73.53 -20.25,79.68 -23.21,85.02 -26.17,90.36 -28.30,94.58 -30.43,98.79 -32.14,102.86 -33.85,106.92 -34.10,107.46 -34.35,108.00 -35.10,109.21 -35.86,110.42 -36.88,111.41 -37.90,112.40 -39.13,113.12 -40.36,113.84 -41.72,114.25 -43.09,114.65 -44.51,114.72 -45.94,114.78 -47.33,114.51 -48.73,114.23 -50.02,113.63 -51.31,113.02 -52.42,112.13 -53.53,111.24 -54.39,110.10 -55.25,108.97 -55.82,107.66 -56.39,106.35 -56.62,104.95 -56.86,103.54 -56.75,102.12 -56.65,100.70 -56.20,99.35 -55.76,98.00 -54.05,92.46 -52.33,86.92 -50.41,82.35 -48.48,77.78 -46.66,73.02 -44.83,68.26 -43.34,63.54 -41.85,58.81 -40.74,54.22 -39.62,49.62 -38.79,45.36 -37.96,41.10 -37.29,34.83 -36.62,28.56 -36.69,24.12 -36.77,19.69 -36.89,18.97 -37.01,18.25 -36.80,16.76 -36.59,15.28 -36.03,13.89 -35.47,12.50 -34.59,11.28 -33.72,10.07 -32.58,9.09 -31.44,8.12 -30.10,7.45 -28.76,6.78 -27.30,6.45 -25.83,6.12 -24.34,6.15 -22.84,6.18 -21.39,6.57 -19.94,6.96 -18.63,7.68 -17.32,8.40 -16.21,9.42 -15.11,10.43 -14.29,11.68 -13.46,12.93 -12.96,14.34 -12.45,15.75 -12.30,17.24 -12.15,18.74 -16.65,24.54 -21.15,30.35 -21.08,32.17 -21.00,33.99 -21.94,35.26 -22.87,36.53 -24.08,37.53 -25.29,38.54 -26.70,39.23 -28.11,39.91 -29.65,40.24 -31.19,40.57 -32.76,40.52 -34.33,40.48 -35.85,40.05 -37.36,39.63 -38.73,38.86 -40.10,38.08 -41.24,37.01 -42.39,35.93 -43.24,34.61 -44.09,33.29 -44.61,31.80 -45.12,30.31 -45.26,28.75 -45.40,27.18 -45.16,25.63 -44.93,24.07 -44.32,22.62 -43.72,21.17 -44.29,26.22 -44.85,31.28 -40.70,34.44 -36.55,37.59 -37.91,43.73 -39.26,49.86 -40.43,56.93 -41.59,63.99 -42.64,72.17 -43.69,80.36 -44.84,87.93 -46.00,95.51 -47.34,101.41 -48.69,107.31 -49.90,111.40 -51.11,115.49 -53.10,119.74 -55.09,123.98 -55.40,124.60 -55.71,125.22 -56.71,126.52 -57.71,127.82 -59.00,128.84 -60.28,129.86 -61.77,130.54 -63.26,131.22 -64.87,131.53 -66.48,131.83 -68.11,131.75 -69.75,131.66 -71.32,131.18 -72.89,130.71 -74.29,129.87 -75.70,129.03 -76.87,127.88 -78.04,126.73 -78.89,125.33 -79.75,123.94 -80.25,122.38 -80.75,120.82 -80.86,119.18 -80.97,117.55 -80.68,115.93 -80.40,114.32 -79.74,112.82 -79.08,111.32 -78.51,118.28 -77.94,125.24 -79.64,120.72 -81.33,116.21 -80.54,108.36 -79.75,100.52 -78.87,96.14 -78.00,91.77 -76.80,85.26 -75.60,78.75 -75.84,74.42 -76.08,70.09 -68.95,72.10 -61.82,74.11 -61.73,79.63 -61.63,85.16 -63.07,91.16 -64.51,97.16 -65.05,102.42 -65.59,107.68 -66.67,113.74 -67.75,119.80 -69.67,124.13 -71.59,128.46 -75.78,131.48 -79.97,134.50 -86.24,133.20 -92.51,131.90 -95.52,128.39 -98.53,124.87 -99.41,120.38 -100.28,115.89 -100.29,111.00 -100.29,106.10 -100.06,97.88 -99.83,89.67 -99.73,82.38 -99.63,75.09 -99.68,70.49 -99.74,65.88 -99.87,61.31 -100.01,56.74 -100.14,51.92 -100.27,47.09 -100.32,41.80 -100.38,36.51 -100.20,31.51 -100.02,26.50 -98.21,21.67 -96.41,16.84 -92.80,13.15 -89.18,9.46 -85.11,6.86 -81.04,4.26 -83.24,8.04 -85.44,11.81 -83.48,16.34 -81.52,20.87 -77.57,22.50 -73.63,24.12 -69.16,22.22 -64.69,20.31 -61.44,16.11 -58.19,11.91 -60.62,6.16 -63.04,0.40 -56.74,1.75 -50.45,3.11 -47.42,6.46 -44.38,9.82 -43.52,16.21 -42.65,22.60 -43.87,27.39 -45.09,32.18 -45.40,34.68 -45.70,37.18 -46.04,38.96 -46.37,40.75 -47.13,42.40 -47.88,44.06 -49.01,45.48 -50.14,46.91 -51.57,48.03 -53.01,49.14 -54.67,49.88 -56.33,50.62 -58.12,50.94 -59.91,51.26 -61.72,51.14 -63.54,51.02 -65.27,50.47 -67.00,49.92 -68.56,48.98 -70.11,48.03 -71.39,46.74 -72.67,45.45 -73.60,43.89 -74.53,42.33 -75.07,40.59 -75.60,38.85 -75.70,37.03 -75.80,35.22 -74.08,29.87 -72.36,24.53 -69.43,19.14 -66.49,13.75 -63.09,9.34 -59.68,4.93 -55.70,2.42 -51.71,-0.08 -47.40,-0.84 -43.08,-1.61 -38.55,-1.72 -34.03,-1.82 -29.19,-0.72 -24.35,0.37 -18.68,-0.50 -13.01,-1.37 -10.53,-1.13 -8.05,-0.89 -5.77,0.12 -3.50,1.14 -1.66,2.83 0.16,4.52 1.35,6.71 2.55,8.90 2.98,11.36 3.41,13.81 3.04,16.28 2.67,18.75 1.53,20.96 0.38,23.18 -1.40,24.92 -3.19,26.66 -5.44,27.73 -7.69,28.80 -10.16,29.10 -12.64,29.40 -15.08,28.90 -17.52,28.39 -19.68,27.13 -21.83,25.87 -23.47,23.99 -25.10,22.11 -26.05,19.80 -27.01,17.50 -27.17,15.01 -27.34,12.52 -26.70,10.11 -26.06,7.70 -24.68,5.62 -23.31,3.53 -21.34,2.00 -19.37,0.47 -17.02,-0.35 -14.67,-1.17 -12.17,-1.20 -9.68,-1.23 -7.31,-0.46 -4.93,0.30 -2.93,1.78 -0.93,3.27 0.49,5.31 1.91,7.36 2.61,9.76 3.30,12.15 3.20,14.64 3.09,17.14 2.20,19.46 1.30,21.79 -0.28,23.71 -1.87,25.63 -3.99,26.94 -6.11,28.25 -8.54,28.82 -10.97,29.38 -10.97,29.38 -10.97,29.38 -12.59,29.30 -14.20,29.21 -18.45,30.33 -22.69,31.45 -26.93,31.05 -31.18,30.65 -36.08,30.21 -40.98,29.77 -43.34,33.47 -45.70,37.18 -46.04,38.96 -46.37,40.75 -47.13,42.40 -47.88,44.06 -49.01,45.48 -50.13,46.91 -51.57,48.02 -53.01,49.14 -54.67,49.88 -56.33,50.62 -58.12,50.94 -59.91,51.26 -61.72,51.14 -63.54,51.02 -65.27,50.47 -67.00,49.92 -68.55,48.98 -70.11,48.03 -71.39,46.74 -72.67,45.45 -73.60,43.89 -74.53,42.33 -75.07,40.59 -75.60,38.85 -75.70,37.04 -75.80,35.22 -75.59,33.14 -75.38,31.05 -73.85,25.87 -72.32,20.68 -70.15,24.64 -67.97,28.59 -74.34,26.53 -80.70,24.46 -83.42,20.44 -86.14,16.41 -86.59,10.61 -87.04,4.81 -84.03,1.71 -81.02,-1.38 -73.59,-2.78 -66.16,-4.18 -62.54,-1.15 -58.91,1.86 -57.36,7.13 -55.80,12.39 -56.66,16.80 -57.51,21.22 -60.92,25.16 -64.33,29.10 -68.05,32.81 -71.77,36.51 -71.82,41.80 -71.87,47.09 -72.00,51.92 -72.13,56.74 -72.27,61.31 -72.41,65.88 -72.46,70.49 -72.51,75.09 -72.41,82.38 -72.31,89.66 -72.18,93.91 -72.06,98.16 -73.98,103.68 -75.90,109.20 -81.29,108.23 -86.68,107.26 -90.84,110.36 -95.00,113.46 -93.83,109.35 -92.67,105.24 -91.96,98.76 -91.26,92.29 -90.51,87.97 -89.75,83.65 -87.17,75.58 -84.58,67.52 -80.92,60.65 -77.25,53.79 -73.07,51.39 -68.88,49.00 -60.28,52.53 -51.68,56.06 -50.14,61.07 -48.59,66.07 -48.48,70.36 -48.36,74.66 -48.87,78.97 -49.38,83.29 -50.56,89.91 -51.73,96.53 -54.50,103.74 -57.26,110.95 -56.49,118.09 -55.71,125.22 -56.71,126.52 -57.71,127.81 -59.00,128.83 -60.28,129.85 -61.77,130.54 -63.26,131.22 -64.87,131.53 -66.48,131.83 -68.11,131.75 -69.75,131.66 -71.32,131.18 -72.88,130.71 -74.29,129.87 -75.70,129.03 -76.87,127.88 -78.03,126.73 -78.89,125.34 -79.75,123.94 -80.25,122.38 -80.75,120.82 -80.86,119.18 -80.97,117.55 -80.68,115.93 -80.40,114.32 -79.74,112.82 -79.08,111.32 -77.64,109.10 -76.20,106.87 -74.42,101.52 -72.63,96.16 -71.43,90.50 -70.23,84.83 -69.35,77.08 -68.46,69.32 -68.06,65.04 -67.66,60.76 -67.17,56.32 -66.68,51.88 -65.84,47.04 -65.01,42.20 -63.42,37.22 -61.84,32.25 -56.77,25.49 -51.71,18.73 -44.90,15.30 -38.09,11.87 -33.79,12.03 -29.49,12.19 -24.78,17.73 -20.08,23.27 -20.54,28.63 -21.00,33.99 -21.94,35.26 -22.87,36.53 -24.08,37.53 -25.28,38.54 -26.70,39.23 -28.11,39.91 -29.65,40.24 -31.19,40.57 -32.76,40.52 -34.33,40.48 -35.84,40.05 -37.36,39.63 -38.73,38.86 -40.10,38.08 -41.24,37.01 -42.39,35.93 -43.24,34.61 -44.09,33.29 -44.60,31.80 -45.12,30.31 -45.26,28.75 -45.40,27.18 -45.16,25.63 -44.93,24.07 -44.32,22.62 -43.72,21.17 -41.10,17.67 -38.48,14.18 -33.96,10.63 -29.43,7.07 -33.22,12.66 -37.01,18.25 -36.80,16.76 -36.59,15.28 -36.03,13.89 -35.47,12.50 -34.59,11.28 -33.72,10.07 -32.58,9.10 -31.44,8.12 -30.10,7.45 -28.76,6.78 -27.30,6.45 -25.83,6.12 -24.34,6.15 -22.84,6.18 -21.39,6.57 -19.94,6.96 -18.63,7.68 -17.32,8.40 -16.22,9.42 -15.11,10.43 -14.29,11.68 -13.46,12.93 -12.96,14.34 -12.45,15.75 -12.30,17.24 -12.15,18.73 -12.24,20.56 -12.33,22.39 -12.74,26.66 -13.15,30.94 -14.34,38.28 -15.53,45.62 -16.47,50.20 -17.42,54.79 -18.61,60.08 -19.80,65.36 -21.32,70.76 -22.84,76.16 -24.60,81.40 -26.36,86.64 -28.17,91.38 -29.97,96.11 -32.16,102.06 -34.35,108.00 -35.10,109.21 -35.86,110.42 -36.88,111.41 -37.90,112.40 -39.13,113.12 -40.36,113.84 -41.72,114.25 -43.09,114.65 -44.51,114.72 -45.93,114.78 -47.33,114.51 -48.73,114.23 -50.02,113.63 -51.31,113.02 -52.42,112.13 -53.53,111.24 -54.39,110.10 -55.25,108.97 -55.82,107.66 -56.39,106.36 -56.62,104.95 -56.86,103.55 -56.75,102.13 -56.65,100.71 -56.20,99.35 -55.76,98.00 -55.42,97.50 -55.07,97.00 -52.78,92.80 -50.49,88.60 -48.34,84.40 -46.19,80.20 -43.61,74.61 -41.02,69.01 -38.11,62.09 -35.21,55.16 -32.11,47.96 -29.02,40.77 -25.88,34.77 -22.74,28.77 -18.99,24.12 -15.25,19.47 -6.28,17.40 2.67,15.33 6.36,18.14 10.05,20.95 12.00,28.09 13.95,35.23 12.09,40.67 10.23,46.11 8.75,51.06 7.27,56.00 5.78,60.21 4.30,64.42 2.54,69.12 0.78,73.82 -1.36,78.42 -3.51,83.02 -5.80,88.23 -8.09,93.43 -10.52,97.66 -12.95,101.88 -16.14,106.94 -19.33,112.00 -22.34,115.68 -25.36,119.35 -29.73,121.79 -34.11,124.23 -37.50,127.50 -40.89,130.78 -40.98,135.12 -41.08,139.46 -41.07,144.18 -41.05,148.90 -41.91,153.27 -42.77,157.63 -43.08,150.21 -43.39,142.79 -42.61,144.51 -41.83,146.24 -41.49,148.10 -41.15,149.96 -41.27,151.85 -41.38,153.74 -41.94,155.55 -42.51,157.35 -43.49,158.97 -44.47,160.59 -45.80,161.93 -47.14,163.27 -48.76,164.24 -50.38,165.22 -52.19,165.79 -53.99,166.35 -55.88,166.46 -57.77,166.58 -59.63,166.24 -61.49,165.89 -63.22,165.12 -64.95,164.34 -66.43,163.17 -67.92,162.01 -69.09,160.52 -70.26,159.03 -69.47,159.58 -68.69,160.13 -71.61,156.36 -74.53,152.58 -75.42,147.95 -76.32,143.31 -72.85,147.38 -69.38,151.45 -73.07,153.80 -76.76,156.16 -79.88,159.06 -82.99,161.95 -86.80,166.13 -90.60,170.31 -90.43,175.07 -90.27,179.82 -91.20,184.38 -92.13,188.94 -97.94,188.57 -103.75,188.20 -106.78,200.42 -109.81,212.65 -114.07,209.35 -118.34,206.05 -121.18,200.88 -124.03,195.70 -124.26,190.16 -124.50,184.61 -124.19,180.34 -123.89,176.07 -123.52,171.19 -123.16,166.31 -123.10,161.85 -123.05,157.39 -123.03,152.76 -123.01,148.12 -123.01,143.00 -123.00,137.87 -122.96,133.31 -122.93,128.75 -122.92,123.72 -122.92,118.70 -122.90,114.24 -122.88,109.77 -122.55,104.71 -122.22,99.65 -121.76,94.88 -121.31,90.10 -121.04,85.64 -120.77,81.19 -120.26,76.86 -119.75,72.53 -119.52,67.51 -119.29,62.49 -119.12,58.08 -118.95,53.67 -118.67,48.34 -118.39,43.01 -118.02,38.50 -117.66,34.00 -117.20,29.49 -116.74,24.99 -116.13,19.34 -115.53,13.70 -114.83,8.66 -114.13,3.62 -114.08,-1.04 -114.03,-5.71 -110.80,-1.49 -107.57,2.72 -100.15,4.24 -92.73,5.77 -97.23,7.28 -101.74,8.80 -98.23,5.25 -94.72,1.69 -94.18,-3.39 -93.65,-8.48 -96.12,-11.93 -98.60,-15.39 -103.39,-15.76 -108.17,-16.14 -104.58,-18.47 -100.98,-20.81 -96.10,-22.04 -91.22,-23.27 -86.58,-24.02 -81.94,-24.77 -76.47,-25.65 -71.01,-26.53 -64.75,-26.64 -58.50,-26.75 -54.16,-26.79 -49.82,-26.82 -45.40,-26.87 -40.99,-26.91 -35.98,-26.93 -30.97,-26.94 -29.16,-26.76 -27.34,-26.57 -25.62,-25.96 -23.90,-25.35 -22.38,-24.34 -20.86,-23.33 -19.62,-21.99 -18.39,-20.65 -17.51,-19.05 -16.63,-17.45 -16.16,-15.68 -15.68,-13.92 -15.65,-12.10 -15.61,-10.27 -16.02,-8.49 -16.42,-6.71 -17.23,-5.08 -18.05,-3.45 -19.23,-2.06 -20.42,-0.67 -21.90,0.39 -23.38,1.45 -25.07,2.14 -26.77,2.82 -28.58,3.07 -30.38,3.33 -30.36,3.26 -30.34,3.20 -35.16,3.67 -39.98,4.14 -44.91,4.39 -49.84,4.65 -54.52,5.05 -59.19,5.45 -65.84,5.79 -72.49,6.13 -74.30,5.84 -76.11,5.54 -77.80,4.82 -79.49,4.10 -80.96,2.99 -82.43,1.89 -83.59,0.46 -84.75,-0.95 -85.54,-2.61 -86.33,-4.27 -86.69,-6.07 -87.06,-7.87 -86.98,-9.71 -86.91,-11.55 -86.40,-13.31 -85.88,-15.07 -84.96,-16.67 -84.04,-18.26 -82.77,-19.58 -81.50,-20.90 -79.94,-21.89 -78.39,-22.87 -76.64,-23.45 -74.90,-24.03 -73.07,-24.17 -71.24,-24.32 -71.12,-24.31 -71.01,-24.30 -66.40,-23.59 -61.78,-22.88 -56.94,-22.30 -52.10,-21.72 -47.00,-21.70 -41.90,-21.68 -37.11,-21.65 -32.31,-21.62 -27.46,-21.58 -22.61,-21.53 -18.18,-21.78 -13.75,-22.03 -9.27,-23.14 -4.78,-24.26 0.02,-24.98 4.84,-25.71 9.88,-21.54 14.92,-17.38 16.12,-10.88 17.32,-4.38 19.22,-0.18 21.11,4.02 22.50,8.19 23.88,12.37 23.47,17.83 23.05,23.29 20.52,26.87 17.98,30.45 15.44,34.64 12.90,38.84 9.17,41.49 5.44,44.15 -0.66,42.65 -6.76,41.16 -9.27,35.59 -11.78,30.02 -11.42,25.44 -11.05,20.86 -10.73,15.06 -10.42,9.25 -10.32,4.62 -10.22,0 -10.07,-1.22 -9.92,-2.44 -9.48,-3.59 -9.05,-4.75 -8.35,-5.76 -7.65,-6.77 -6.72,-7.59 -5.80,-8.41 -4.71,-8.98 -3.62,-9.55 -2.42,-9.85 -1.23,-10.14 0.00,-10.14 1.23,-10.14 2.42,-9.85 3.62,-9.55 4.71,-8.98 5.80,-8.41 6.73,-7.59 7.65,-6.77 8.35,-5.76 9.05,-4.75 9.49,-3.59 9.92,-2.44 10.07,-1.22 10.22,0.00 10.22,0.00 L 10.22,0 Z"></path></g><g stroke-opacity="0.3" fill-opacity="0.3" transform="translate(545.292249891493 381.5492808024095) rotate(0 4.8492431640625 29.807535807291686)" stroke="none"><path fill="#1e1e1e" d="M 5.10,-0.18 Q 5.10,-0.18 5.20,2.63 5.29,5.44 5.52,8.51 5.75,11.58 5.93,13.79 6.11,16.00 6.30,18.32 6.49,20.65 3.99,19.60 1.50,18.55 -1.02,18.72 -3.55,18.89 -2.92,16.84 -2.29,14.80 -1.70,12.31 -1.12,9.82 -0.24,7.81 0.63,5.79 1.75,3.45 2.87,1.10 2.10,0.74 1.34,0.39 1.44,-0.46 1.55,-1.33 1.86,-2.14 2.17,-2.95 2.66,-3.67 3.16,-4.38 3.81,-4.96 4.46,-5.54 5.23,-5.94 6.00,-6.34 6.85,-6.55 7.69,-6.76 8.56,-6.76 9.43,-6.76 10.28,-6.55 11.12,-6.34 11.89,-5.93 12.66,-5.53 13.31,-4.95 13.96,-4.37 14.46,-3.66 14.95,-2.94 15.26,-2.13 15.57,-1.31 15.67,-0.45 15.77,0.41 16.26,2.63 16.74,4.86 16.87,7.44 17.00,10.02 16.86,12.54 16.72,15.06 16.16,17.63 15.61,20.19 14.80,23.14 13.99,26.09 13.09,28.43 12.18,30.77 11.86,33.18 11.54,35.59 11.30,37.73 11.06,39.87 10.56,41.94 10.05,44.02 9.65,46.24 9.25,48.46 9.11,50.82 8.96,53.18 8.97,56.39 8.98,59.61 8.78,60.82 8.59,62.04 8.01,63.12 7.43,64.21 6.54,65.05 5.65,65.90 4.53,66.41 3.42,66.93 2.20,67.06 0.97,67.20 -0.22,66.93 -1.42,66.67 -2.47,66.03 -3.52,65.40 -4.32,64.46 -5.11,63.53 -5.57,62.38 -6.02,61.24 -6.09,60.02 -6.16,58.79 -5.83,57.60 -5.50,56.42 -4.81,55.40 -4.12,54.38 -3.14,53.64 -2.16,52.90 -1.00,52.51 0.16,52.11 1.39,52.11 2.62,52.11 3.78,52.51 4.95,52.90 5.92,53.64 6.90,54.39 7.59,55.40 8.28,56.42 8.61,57.61 8.94,58.79 8.87,60.02 8.80,61.24 8.35,62.39 7.89,63.53 7.10,64.46 6.30,65.40 5.25,66.03 4.20,66.67 3.00,66.93 1.79,67.20 0.57,67.06 -0.64,66.93 -1.75,66.41 -2.87,65.90 -3.76,65.05 -4.65,64.21 -5.23,63.12 -5.80,62.03 -6.00,60.82 -6.20,59.61 -6.20,59.61 -6.20,59.61 -6.18,56.71 -6.16,53.81 -5.99,51.37 -5.81,48.93 -5.61,46.63 -5.41,44.32 -4.60,41.75 -3.79,39.19 -3.42,36.94 -3.04,34.69 -2.77,32.02 -2.50,29.34 -1.48,26.58 -0.46,23.83 0.21,21.75 0.88,19.67 1.42,17.20 1.97,14.73 2.24,12.57 2.51,10.40 2.37,8.00 2.22,5.60 1.78,2.99 1.34,0.39 1.44,-0.46 1.55,-1.33 1.86,-2.14 2.17,-2.95 2.66,-3.67 3.16,-4.38 3.81,-4.96 4.46,-5.54 5.23,-5.94 6.00,-6.34 6.85,-6.55 7.69,-6.76 8.56,-6.76 9.43,-6.76 10.28,-6.55 11.12,-6.34 11.89,-5.93 12.66,-5.53 13.31,-4.95 13.96,-4.37 14.46,-3.66 14.95,-2.94 15.26,-2.13 15.57,-1.31 15.67,-0.45 15.77,0.40 15.72,2.51 15.67,4.62 14.91,6.66 14.16,8.70 13.04,11.39 11.93,14.08 11.28,16.25 10.62,18.43 9.54,21.07 8.47,23.71 7.27,25.57 6.08,27.42 2.71,28.28 -0.65,29.14 -3.22,24.89 -5.79,20.65 -5.61,18.34 -5.43,16.03 -5.27,13.88 -5.11,11.73 -5.00,8.77 -4.89,5.80 -5.00,2.99 -5.10,0.18 -5.05,-0.43 -5.00,-1.04 -4.80,-1.63 -4.60,-2.21 -4.27,-2.73 -3.94,-3.25 -3.49,-3.67 -3.05,-4.10 -2.51,-4.40 -1.98,-4.71 -1.38,-4.88 -0.79,-5.05 -0.17,-5.07 0.43,-5.09 1.03,-4.96 1.64,-4.84 2.19,-4.57 2.75,-4.30 3.22,-3.91 3.70,-3.52 4.07,-3.02 4.44,-2.53 4.67,-1.96 4.91,-1.39 5.01,-0.78 5.10,-0.18 5.10,-0.18 L 5.10,-0.18 Z"></path></g><g stroke-opacity="0.3" fill-opacity="0.3" transform="translate(545.5170627170138 473.3564639621318) rotate(0 -5.559488932291629 -0.9514363606771212)" stroke="none"><path fill="#1e1e1e" d="M 0,5.20 Q 0,5.20 -1.60,5.29 -3.21,5.37 -3.96,5.64 -4.71,5.91 -5.38,5.86 -6.05,5.81 -6.68,5.61 -7.32,5.40 -7.89,5.05 -8.46,4.70 -8.92,4.22 -9.39,3.74 -9.73,3.16 -10.07,2.59 -10.26,1.95 -10.45,1.31 -10.49,0.64 -10.52,-0.02 -10.39,-0.68 -10.26,-1.33 -9.98,-1.94 -9.70,-2.55 -9.28,-3.07 -8.87,-3.59 -8.33,-4.00 -7.80,-4.40 -7.19,-4.67 -6.58,-4.94 -5.92,-5.05 -5.26,-5.17 -3.02,-4.28 -0.78,-3.39 1.26,-4.36 3.31,-5.32 4.60,-2.71 5.89,-0.10 3.94,0.73 1.98,1.57 -0.17,1.63 -2.33,1.68 -5.36,1.90 -8.39,2.13 -11.00,2.21 -13.61,2.28 -15.93,2.67 -18.24,3.06 -16.05,1.78 -13.85,0.49 -15.29,-1.96 -16.72,-4.43 -13.53,-4.27 -10.34,-4.11 -9.15,-3.91 -7.95,-3.71 -6.89,-3.13 -5.83,-2.56 -5.01,-1.68 -4.18,-0.79 -3.68,0.30 -3.18,1.40 -3.06,2.60 -2.94,3.80 -3.21,4.98 -3.48,6.16 -4.11,7.19 -4.74,8.22 -5.67,8.99 -6.59,9.77 -7.72,10.21 -8.84,10.64 -10.05,10.70 -11.26,10.76 -12.42,10.42 -13.58,10.09 -14.57,9.41 -15.57,8.72 -16.29,7.75 -17.02,6.79 -17.39,5.64 -17.77,4.49 -17.76,3.28 -17.75,2.08 -17.36,0.93 -16.96,-0.20 -16.22,-1.15 -15.48,-2.11 -14.48,-2.78 -13.47,-3.45 -12.31,-3.76 -11.14,-4.08 -9.94,-4.00 -8.73,-3.93 -7.61,-3.47 -6.49,-3.02 -5.58,-2.23 -4.66,-1.44 -4.05,-0.40 -3.44,0.63 -3.18,1.81 -2.93,2.99 -3.07,4.19 -3.21,5.39 -3.73,6.49 -4.25,7.58 -5.08,8.45 -5.92,9.32 -6.99,9.88 -8.06,10.43 -9.26,10.62 -10.45,10.81 -10.45,10.81 -10.45,10.81 -14.50,10.47 -18.55,10.13 -21.39,9.22 -24.22,8.32 -26.29,4.87 -28.37,1.42 -28.13,-0.96 -27.89,-3.34 -26.96,-5.45 -26.02,-7.56 -24.00,-9.19 -21.97,-10.81 -19.52,-11.36 -17.07,-11.91 -14.86,-11.95 -12.65,-11.99 -10.22,-11.97 -7.79,-11.96 -5.06,-12.07 -2.33,-12.18 0.50,-12.10 3.34,-12.03 5.64,-11.94 7.95,-11.86 10.74,-10.97 13.54,-10.08 14.73,-8.10 15.93,-6.12 15.74,-3.46 15.56,-0.81 14.15,1.11 12.74,3.04 10.12,5.18 7.50,7.32 4.14,7.85 0.79,8.38 -1.96,7.14 -4.71,5.91 -5.38,5.86 -6.05,5.81 -6.68,5.61 -7.32,5.40 -7.89,5.05 -8.46,4.70 -8.92,4.22 -9.39,3.74 -9.73,3.16 -10.07,2.59 -10.26,1.95 -10.45,1.31 -10.49,0.64 -10.52,-0.02 -10.39,-0.68 -10.26,-1.33 -9.98,-1.94 -9.70,-2.55 -9.28,-3.07 -8.87,-3.59 -8.33,-4.00 -7.80,-4.40 -7.19,-4.67 -6.58,-4.94 -5.92,-5.05 -5.26,-5.17 -4.23,-5.27 -3.21,-5.37 -1.60,-5.29 0,-5.20 0.62,-5.13 1.24,-5.05 1.83,-4.83 2.42,-4.61 2.93,-4.25 3.45,-3.89 3.87,-3.42 4.28,-2.95 4.57,-2.40 4.87,-1.84 5.02,-1.23 5.17,-0.62 5.17,0.00 5.17,0.62 5.02,1.23 4.87,1.84 4.57,2.40 4.28,2.95 3.87,3.42 3.45,3.89 2.93,4.25 2.42,4.61 1.83,4.83 1.24,5.05 0.62,5.13 -0.00,5.20 -0.00,5.20 L 0,5.20 Z"></path></g><g stroke-opacity="0.3" fill-opacity="0.3" transform="translate(524.4086642795138 507.09785122341646) rotate(0 -22.096693250867986 12.678731282552121)" stroke="none"><path fill="#1e1e1e" d="M 4.89,-0.18 Q 4.89,-0.18 5.05,2.01 5.20,4.20 5.47,6.72 5.73,9.24 5.06,11.52 4.39,13.79 2.37,14.95 0.35,16.12 -1.63,18.03 -3.63,19.94 -5.71,21.64 -7.79,23.35 -9.84,24.67 -11.90,25.99 -14.36,27.50 -16.83,29.00 -18.63,30.15 -20.44,31.31 -22.28,32.43 -24.12,33.55 -26.03,34.57 -27.94,35.60 -29.97,36.41 -32.00,37.23 -34.74,37.69 -37.48,38.16 -39.71,38.56 -41.94,38.97 -45.23,38.55 -48.53,38.14 -50.64,35.84 -52.75,33.54 -53.02,31.10 -53.29,28.66 -51.32,24.78 -49.36,20.90 -46.30,18.81 -43.24,16.72 -39.82,14.96 -36.40,13.19 -33.24,11.59 -30.08,9.98 -27.69,8.83 -25.30,7.69 -23.37,6.54 -21.45,5.38 -19.28,3.68 -17.12,1.98 -15.25,0.63 -13.39,-0.71 -11.53,-2.22 -9.67,-3.73 -8.02,-6.15 -6.37,-8.57 -4.76,-10.01 -3.14,-11.45 -4.17,-10.28 -5.19,-9.11 -4.77,-9.90 -4.34,-10.70 -3.73,-11.36 -3.13,-12.03 -2.38,-12.54 -1.63,-13.04 -0.79,-13.35 0.05,-13.66 0.94,-13.76 1.84,-13.86 2.73,-13.74 3.63,-13.62 4.47,-13.29 5.31,-12.96 6.04,-12.44 6.78,-11.92 7.37,-11.24 7.96,-10.56 8.37,-9.76 8.78,-8.96 8.98,-8.08 9.19,-7.20 9.18,-6.30 9.17,-5.40 8.95,-4.53 8.72,-3.65 7.70,-0.90 6.69,1.84 6.22,2.86 5.75,3.88 4.97,4.70 4.20,5.51 3.21,6.04 2.22,6.57 1.11,6.75 0.00,6.94 -1.09,6.76 -2.20,6.58 -3.20,6.05 -4.19,5.53 -4.96,4.71 -5.73,3.90 -6.21,2.88 -6.68,1.86 -6.80,0.74 -6.93,-0.36 -6.69,-1.46 -6.45,-2.56 -5.87,-3.52 -5.29,-4.48 -4.44,-5.21 -3.58,-5.94 -2.54,-6.35 -1.50,-6.77 -0.37,-6.83 0.74,-6.90 1.82,-6.60 2.90,-6.30 3.83,-5.67 4.76,-5.04 5.44,-4.15 6.12,-3.25 6.48,-2.19 6.84,-1.13 6.84,-0.00 6.85,1.11 6.49,2.17 6.13,3.24 5.45,4.13 4.77,5.03 3.85,5.66 2.92,6.29 1.84,6.59 0.75,6.89 -0.36,6.83 -1.48,6.78 -2.52,6.36 -3.57,5.95 -4.42,5.22 -5.28,4.49 -5.86,3.53 -6.44,2.57 -6.68,1.47 -6.93,0.38 -6.80,-0.73 -6.68,-1.84 -6.68,-1.84 -6.69,-1.84 -5.94,-5.48 -5.19,-9.11 -4.77,-9.90 -4.34,-10.70 -3.73,-11.36 -3.13,-12.03 -2.38,-12.54 -1.64,-13.04 -0.79,-13.35 0.05,-13.66 0.94,-13.76 1.84,-13.86 2.73,-13.74 3.63,-13.62 4.47,-13.29 5.30,-12.97 6.04,-12.45 6.78,-11.93 7.37,-11.24 7.96,-10.56 8.37,-9.76 8.78,-8.96 8.98,-8.08 9.19,-7.20 9.18,-6.30 9.17,-5.40 8.95,-4.53 8.72,-3.66 8.70,-3.52 8.67,-3.38 6.77,-1.22 4.88,0.94 3.27,2.94 1.66,4.94 -0.18,6.81 -2.03,8.68 -3.78,10.11 -5.54,11.53 -7.42,12.77 -9.31,14.01 -11.53,15.62 -13.76,17.23 -15.60,18.32 -17.43,19.41 -19.38,20.34 -21.33,21.27 -23.90,22.57 -26.47,23.87 -29.68,25.70 -32.89,27.54 -36.20,27.64 -39.50,27.73 -41.97,26.23 -44.43,24.72 -41.84,24.36 -39.26,23.99 -36.79,23.57 -34.32,23.16 -32.34,22.24 -30.37,21.33 -28.26,20.19 -26.15,19.05 -24.00,17.90 -21.85,16.75 -19.21,15.35 -16.56,13.94 -14.22,12.44 -11.88,10.93 -9.71,9.09 -7.54,7.25 -4.62,6.19 -1.71,5.12 -3.45,7.25 -5.19,9.39 -5.03,6.98 -4.88,4.57 -4.88,2.37 -4.89,0.18 -4.84,-0.40 -4.79,-0.99 -4.60,-1.55 -4.41,-2.11 -4.10,-2.61 -3.78,-3.10 -3.35,-3.51 -2.92,-3.92 -2.41,-4.21 -1.90,-4.51 -1.33,-4.67 -0.77,-4.83 -0.18,-4.85 0.40,-4.88 0.98,-4.76 1.56,-4.64 2.09,-4.38 2.63,-4.13 3.08,-3.75 3.54,-3.38 3.89,-2.90 4.24,-2.43 4.47,-1.89 4.70,-1.34 4.80,-0.76 4.89,-0.18 4.89,-0.18 L 4.89,-0.18 Z"></path></g><g stroke-opacity="0.3" fill-opacity="0.3" transform="translate(460.1928982204861 562.7312605116109) rotate(0 3.1212361653645644 -3.9665730794270644)" stroke="none"><path fill="#1e1e1e" d="M -4.73,0.51 Q -4.73,0.51 -4.90,-0.21 -5.06,-0.94 -5.17,-3.31 -5.29,-5.67 -3.50,-7.65 -1.72,-9.62 1.15,-11.51 4.03,-13.40 4.71,-13.54 5.40,-13.68 6.09,-13.65 6.78,-13.62 7.45,-13.43 8.12,-13.23 8.72,-12.88 9.32,-12.54 9.83,-12.05 10.33,-11.57 10.70,-10.98 11.07,-10.40 11.29,-9.74 11.51,-9.08 11.56,-8.38 11.62,-7.69 11.51,-7.00 11.39,-6.32 11.12,-5.68 10.85,-5.04 10.43,-4.48 10.01,-3.93 9.47,-3.49 8.93,-3.05 8.30,-2.75 7.67,-2.45 5.09,-2.84 2.51,-3.23 1.85,-3.88 1.18,-4.54 0.77,-5.37 0.35,-6.21 0.22,-7.13 0.09,-8.06 0.26,-8.97 0.43,-9.89 0.88,-10.71 1.34,-11.52 2.03,-12.15 2.72,-12.77 3.58,-13.15 4.43,-13.52 5.36,-13.60 6.29,-13.68 7.20,-13.46 8.11,-13.24 8.90,-12.74 9.69,-12.24 10.27,-11.52 10.86,-10.79 11.19,-9.92 11.51,-9.04 11.54,-8.11 11.57,-7.18 11.30,-6.28 11.03,-5.39 10.49,-4.63 9.95,-3.87 9.20,-3.32 8.44,-2.77 7.55,-2.49 6.66,-2.22 5.73,-2.24 4.79,-2.26 3.92,-2.58 3.04,-2.89 2.31,-3.47 1.58,-4.06 1.07,-4.84 0.56,-5.62 0.34,-6.53 0.11,-7.43 0.18,-8.36 0.25,-9.29 0.61,-10.15 0.98,-11.01 1.60,-11.71 2.22,-12.41 3.03,-12.87 3.84,-13.33 4.76,-13.51 5.67,-13.69 6.60,-13.57 7.52,-13.45 5.78,-13.43 4.03,-13.40 4.71,-13.54 5.39,-13.68 6.09,-13.65 6.78,-13.62 7.45,-13.43 8.12,-13.23 8.72,-12.89 9.32,-12.54 9.82,-12.05 10.33,-11.57 10.70,-10.98 11.07,-10.40 11.29,-9.74 11.51,-9.08 11.56,-8.38 11.62,-7.69 11.51,-7.00 11.39,-6.32 11.12,-5.68 10.85,-5.04 10.43,-4.48 10.01,-3.93 9.47,-3.49 8.93,-3.05 8.30,-2.75 7.67,-2.45 6.21,-2.23 4.74,-2.00 4.74,-1.25 4.73,-0.51 4.73,0.06 4.72,0.63 4.57,1.19 4.43,1.75 4.15,2.25 3.88,2.76 3.49,3.18 3.11,3.60 2.63,3.92 2.15,4.24 1.61,4.44 1.07,4.64 0.50,4.70 -0.06,4.76 -0.63,4.68 -1.20,4.61 -1.73,4.40 -2.27,4.18 -2.74,3.85 -3.20,3.52 -3.58,3.08 -3.95,2.65 -4.21,2.14 -4.47,1.62 -4.60,1.06 -4.73,0.50 -4.73,0.51 L -4.73,0.51 Z"></path></g><g stroke-linecap="round" transform="translate(452.17369249131934 243.7577022976352) rotate(0 9.0992567274306 11.669599745008696)"><path d="M0.12 2.75 C0.12 2.75, 0.12 2.75, 0.12 2.75 M0.12 2.75 C0.12 2.75, 0.12 2.75, 0.12 2.75 M0.25 14.79 C2.27 13.05, 4.82 7.68, 9.43 4.23 M0.25 14.79 C2.31 12.06, 3.99 9.77, 9.43 4.23 M3.01 23.81 C7.64 17.32, 14.25 9.91, 20.07 4.19 M3.01 23.81 C7.65 18.68, 12.77 13.5, 20.07 4.19 M13.64 23.78 C15.62 22.26, 17.06 21.12, 20.2 16.23 M13.64 23.78 C15.8 21.67, 17.4 18.52, 20.2 16.23" stroke="#ffec99" stroke-width="1" fill="none"></path><path d="M4.55 0 M4.55 0 C5.64 0.18, 7.82 -0.1, 13.65 0 M4.55 0 C7.3 0.15, 10.95 0.33, 13.65 0 M13.65 0 C18.04 -0.46, 16.39 0.98, 18.2 4.55 M13.65 0 C15.01 -0.5, 19.25 2.76, 18.2 4.55 M18.2 4.55 C19.24 8.2, 17.48 11.28, 18.2 18.79 M18.2 4.55 C18.97 9.84, 18.33 13.75, 18.2 18.79 M18.2 18.79 C18.09 21, 15.89 23.5, 13.65 23.34 M18.2 18.79 C19.81 23.67, 14.86 21.33, 13.65 23.34 M13.65 23.34 C12 22.6, 9.9 23.85, 4.55 23.34 M13.65 23.34 C10.99 23.3, 7.82 23.4, 4.55 23.34 M4.55 23.34 C0.58 22.25, -0.07 23.49, 0 18.79 M4.55 23.34 C2.68 25.1, 0.11 22.19, 0 18.79 M0 18.79 C-0.76 14.88, -0.59 9.42, 0 4.55 M0 18.79 C-0.79 14.51, -0.63 10.22, 0 4.55 M0 4.55 C-0.14 2.26, 1.37 -1.04, 4.55 0 M0 4.55 C-0.57 2.79, 0.18 1.99, 4.55 0" stroke="#f08c00" stroke-width="2" fill="none"></path></g><g stroke-linecap="round" transform="translate(536.2989908854166 187.32910664876368) rotate(0 9.855448404947936 38.21523030598959)"><path d="M1.31 1.14 C1.31 1.14, 1.31 1.14, 1.31 1.14 M1.31 1.14 C1.31 1.14, 1.31 1.14, 1.31 1.14 M4.73 9.41 C5.7 7.44, 7.31 6.32, 9.32 4.12 M4.73 9.41 C5.49 8.49, 6.58 7.28, 9.32 4.12 M4.86 21.45 C8.7 15.63, 13.36 11.09, 20.6 3.34 M4.86 21.45 C10.6 13.82, 17.61 7.14, 20.6 3.34 M4.99 33.49 C10.12 26.2, 16.43 21.12, 20.74 15.38 M4.99 33.49 C10.74 27.93, 15.77 21.93, 20.74 15.38 M5.12 45.53 C8.85 39.79, 14.05 35.91, 20.21 28.17 M5.12 45.53 C8.73 40.33, 12.51 36.99, 20.21 28.17 M5.26 57.57 C9.95 52.68, 13.95 46.93, 20.35 40.21 M5.26 57.57 C10.49 52.85, 13.56 46.38, 20.35 40.21 M1.45 74.14 C4.29 67.51, 11.57 64.84, 20.48 52.25 M1.45 74.14 C8.79 66.64, 14.34 60.05, 20.48 52.25 M6.84 80.14 C10.38 74.85, 15.42 68.36, 20.61 64.29 M6.84 80.14 C11.58 75.68, 14.92 70.94, 20.61 64.29" stroke="#ffec99" stroke-width="1" fill="none"></path><path d="M4.93 0 M4.93 0 C7.4 0.24, 12.57 -0.9, 14.78 0 M4.93 0 C7.05 -0.3, 9.49 -0.26, 14.78 0 M14.78 0 C19.71 -1.41, 20.27 1.8, 19.71 4.93 M14.78 0 C19.86 -1.39, 20.11 1.91, 19.71 4.93 M19.71 4.93 C19.96 24.78, 19.74 46.47, 19.71 71.5 M19.71 4.93 C20.12 18.99, 20.98 33.14, 19.71 71.5 M19.71 71.5 C19.99 76.09, 18.25 76, 14.78 76.43 M19.71 71.5 C18.08 76.37, 15.97 76.95, 14.78 76.43 M14.78 76.43 C12.46 75.97, 11.08 76.04, 4.93 76.43 M14.78 76.43 C12.41 75.97, 9.65 75.93, 4.93 76.43 M4.93 76.43 C3.46 76.64, 0.13 76.09, 0 71.5 M4.93 76.43 C1.48 76.7, -1.11 75.17, 0 71.5 M0 71.5 C-0.2 45.48, 0.2 21.77, 0 4.93 M0 71.5 C-0.47 48.98, -0.86 24.7, 0 4.93 M0 4.93 C0.72 2.77, 0.5 -1.39, 4.93 0 M0 4.93 C-0.05 3.86, 3.65 1.89, 4.93 0" stroke="#f08c00" stroke-width="2" fill="none"></path></g><g stroke-linecap="round" transform="translate(560.4376491970486 148.40590243869428) rotate(0 13.419121636284729 57.829861111111086)"><path d="M1.79 1.55 C1.79 1.55, 1.79 1.55, 1.79 1.55 M1.79 1.55 C1.79 1.55, 1.79 1.55, 1.79 1.55 M4.54 10.57 C5.97 8.47, 7.84 6.88, 10.45 3.78 M4.54 10.57 C5.93 8.53, 8.42 6.14, 10.45 3.78 M4.68 22.62 C11.44 15.19, 21.64 5.21, 23.7 0.73 M4.68 22.62 C10.07 16.41, 16.16 10.12, 23.7 0.73 M4.81 34.66 C14.92 23.74, 22.73 17.81, 28.43 7.49 M4.81 34.66 C12.38 26.26, 19.65 17.62, 28.43 7.49 M4.29 47.45 C9.97 43.01, 13.16 35.63, 27.9 20.28 M4.29 47.45 C12.54 37.56, 20.92 28.49, 27.9 20.28 M4.42 59.49 C13.63 47.64, 23.13 39.05, 28.04 32.32 M4.42 59.49 C10.45 52.81, 16.44 46.29, 28.04 32.32 M4.55 71.53 C15.39 59.56, 24.16 51.55, 28.17 44.36 M4.55 71.53 C11.58 63.59, 18.25 55.43, 28.17 44.36 M4.69 83.57 C11.76 76.76, 16.71 67.69, 28.3 56.4 M4.69 83.57 C9.85 77.33, 15.4 70.32, 28.3 56.4 M4.82 95.62 C9.6 89.81, 16.98 82.13, 28.44 68.45 M4.82 95.62 C12.81 87.43, 20.76 76.54, 28.44 68.45 M2.33 110.67 C6.8 104.77, 15.52 96.86, 27.91 81.24 M2.33 110.67 C7.3 105.78, 11.56 98.28, 27.91 81.24 M7.05 117.43 C14.8 109.98, 22.18 99.88, 28.05 93.28 M7.05 117.43 C13.05 110.92, 20.13 102.4, 28.05 93.28 M17.03 118.15 C20.8 116.7, 23.46 112.89, 28.18 105.32 M17.03 118.15 C20.82 114.01, 24.11 109.79, 28.18 105.32" stroke="#a5d8ff" stroke-width="1" fill="none"></path><path d="M6.71 0 M6.71 0 C11.1 -1.12, 12.96 -0.94, 20.13 0 M6.71 0 C10.68 0.26, 14.65 0.34, 20.13 0 M20.13 0 C22.99 1.69, 27.97 1.51, 26.84 6.71 M20.13 0 C25.79 1.12, 25.63 1.19, 26.84 6.71 M26.84 6.71 C27.18 29.76, 27.5 55.48, 26.84 108.95 M26.84 6.71 C28.25 46.7, 27.6 86.85, 26.84 108.95 M26.84 108.95 C27.25 114.56, 23.28 116.84, 20.13 115.66 M26.84 108.95 C25.01 111.68, 23.8 115.07, 20.13 115.66 M20.13 115.66 C15.39 115.8, 9.42 115.77, 6.71 115.66 M20.13 115.66 C16.5 115.99, 13.74 116.35, 6.71 115.66 M6.71 115.66 C0.26 113.95, 1.03 114.72, 0 108.95 M6.71 115.66 C1.01 117.89, -1.58 111.52, 0 108.95 M0 108.95 C2.25 77.61, -0.7 45.37, 0 6.71 M0 108.95 C-0.57 71.32, 0.19 32.89, 0 6.71 M0 6.71 C-0.23 1.14, 3.86 1.97, 6.71 0 M0 6.71 C1.18 2.35, 2.78 0.89, 6.71 0" stroke="#1971c2" stroke-width="2" fill="none"></path></g><g stroke-linecap="round" transform="translate(475.3904486762152 220.69865417480537) rotate(0 11.437615288628479 21.510586208767364)"><path d="M1.52 1.32 C1.52 1.32, 1.52 1.32, 1.52 1.32 M1.52 1.32 C1.52 1.32, 1.52 1.32, 1.52 1.32 M4.94 9.59 C6.52 8.32, 8.23 4.96, 10.18 3.55 M4.94 9.59 C5.86 8.37, 7.63 6.76, 10.18 3.55 M5.07 21.63 C8.46 19.4, 10.16 12.25, 22.13 2.01 M5.07 21.63 C11.24 15.22, 17.28 7.47, 22.13 2.01 M5.2 33.67 C11.29 27.42, 19.51 17.21, 27.51 8.01 M5.2 33.67 C10.9 28.67, 16.07 22.28, 27.51 8.01 M5.99 44.96 C13.44 36.98, 19.65 28.81, 27.64 20.05 M5.99 44.96 C12.25 37.87, 16.54 31.79, 27.64 20.05 M16.62 44.92 C18.54 43.06, 20.4 40.91, 23.18 37.38 M16.62 44.92 C17.82 43.49, 19.68 41.31, 23.18 37.38" stroke="#a5d8ff" stroke-width="1" fill="none"></path><path d="M5.72 0 M5.72 0 C7.88 -0.41, 10.86 -0.23, 17.16 0 M5.72 0 C9.16 0.52, 12.57 0.15, 17.16 0 M17.16 0 C18.98 0.41, 24.01 0.58, 22.88 5.72 M17.16 0 C22.32 -1.83, 21.14 1.11, 22.88 5.72 M22.88 5.72 C22.49 14.5, 23.33 21.47, 22.88 37.3 M22.88 5.72 C23.6 15.11, 23.02 25.8, 22.88 37.3 M22.88 37.3 C24.58 39.14, 19.26 44.05, 17.16 43.02 M22.88 37.3 C24.36 39.88, 23.2 41.44, 17.16 43.02 M17.16 43.02 C15.11 43.68, 12.67 41.99, 5.72 43.02 M17.16 43.02 C12.83 42.57, 9.49 43, 5.72 43.02 M5.72 43.02 C1.14 42.8, -1.09 42.74, 0 37.3 M5.72 43.02 C4.17 44.2, 0.11 41.66, 0 37.3 M0 37.3 C0.7 25.01, 0.09 16.81, 0 5.72 M0 37.3 C0.48 29.31, 0.57 20.91, 0 5.72 M0 5.72 C-1.6 0.6, 0.03 -0.28, 5.72 0 M0 5.72 C-0.56 -0.03, 2.32 1.1, 5.72 0" stroke="#1971c2" stroke-width="2" fill="none"></path></g><g stroke-linecap="round" transform="translate(110.12501356336799 196.5331403944234) rotate(0 7.588992648654539 7.486894395616332)"><path d="M-0.04 5.26 C-0.04 5.26, -0.04 5.26, -0.04 5.26 M-0.04 5.26 C-0.04 5.26, -0.04 5.26, -0.04 5.26 M3.62 14.2 C5.39 11.72, 9.7 8.38, 12 2.09 M3.44 13.79 C6.4 9.6, 9.59 6.23, 12.33 2.72" stroke="#a5d8ff" stroke-width="1" fill="none"></path><path d="M7.85 1.02 C9.14 1.02, 11.23 1.46, 12.28 2.44 C13.33 3.43, 13.78 5.48, 14.14 6.9 C14.5 8.33, 15.1 9.84, 14.45 11.01 C13.81 12.17, 12.06 13.39, 10.27 13.89 C8.49 14.38, 5.38 14.4, 3.75 13.98 C2.12 13.56, 1.16 12.8, 0.51 11.37 C-0.14 9.94, -0.6 7.03, -0.16 5.39 C0.29 3.76, 1.81 2.43, 3.19 1.57 C4.56 0.7, 7.1 0.29, 8.08 0.22 C9.06 0.14, 8.79 1.1, 9.05 1.14 M7.27 -1.2 C8.83 -1.11, 12.89 1.87, 14.07 3.53 C15.26 5.19, 14.64 7.55, 14.37 8.79 C14.11 10.02, 13.32 10.16, 12.47 10.94 C11.62 11.72, 10.61 12.79, 9.28 13.48 C7.95 14.16, 5.86 15.79, 4.5 15.04 C3.14 14.29, 1.73 10.46, 1.15 8.98 C0.57 7.49, 0.64 7.63, 1.01 6.12 C1.39 4.62, 2.29 0.9, 3.39 -0.05 C4.49 -1, 6.72 0.45, 7.61 0.4 C8.5 0.35, 8.59 -0.28, 8.73 -0.34" stroke="#1971c2" stroke-width="2" fill="none"></path></g><g stroke-linecap="round" transform="translate(163.090101453993 172.00314500596858) rotate(0 16.36749267578122 13.30951266818576)"><path d="M4.88 5.57 C4.88 5.57, 4.88 5.57, 4.88 5.57 M4.88 5.57 C4.88 5.57, 4.88 5.57, 4.88 5.57 M3.71 18.72 C7.14 15.15, 9.48 12.17, 16.35 5.57 M5.17 17.73 C8.65 12.65, 12.52 9.19, 16.83 4.85 M6.7 25.2 C16.55 20.24, 22.31 11.3, 25.84 5.94 M7.25 26.84 C12.54 21.19, 17.2 15.55, 27.01 3.68 M15.94 28.49 C24.08 20.12, 30.35 12.65, 33 10.44 M17.25 28.62 C22.09 22.32, 26.5 15.56, 33.61 9.72" stroke="#a5d8ff" stroke-width="1" fill="none"></path><path d="M12.89 -0.01 C16.17 -0.59, 21.49 0.29, 24.49 1.65 C27.5 3.01, 29.59 5.56, 30.94 8.17 C32.29 10.78, 33.61 14.58, 32.6 17.3 C31.59 20.02, 27.99 23, 24.89 24.49 C21.78 25.97, 17.64 26.49, 13.97 26.21 C10.31 25.92, 5.09 24.81, 2.91 22.78 C0.73 20.76, 0.57 16.9, 0.88 14.05 C1.19 11.2, 2.36 7.95, 4.78 5.69 C7.2 3.43, 13.37 1.27, 15.38 0.5 C17.39 -0.27, 16.94 1.03, 16.86 1.09 M17.68 -0.04 C21.11 0.04, 23.92 1.95, 26.25 3.98 C28.57 6.01, 31.15 9.58, 31.63 12.14 C32.12 14.7, 31.04 17.2, 29.16 19.32 C27.29 21.45, 23.32 23.91, 20.37 24.9 C17.43 25.89, 14.63 25.99, 11.49 25.27 C8.35 24.55, 3.47 22.91, 1.52 20.6 C-0.43 18.28, -0.79 14.37, -0.21 11.38 C0.36 8.38, 2.32 4.28, 4.99 2.63 C7.66 0.98, 13.71 1.91, 15.83 1.46 C17.95 1.02, 17.45 0.21, 17.73 -0.04" stroke="#1971c2" stroke-width="2" fill="none"></path></g><g stroke-linecap="round" transform="translate(255.38475206163184 163.78255716959706) rotate(0 12.506273057725707 11.236945258246521)"><path d="M5.28 1.94 C5.28 1.94, 5.28 1.94, 5.28 1.94 M5.28 1.94 C5.28 1.94, 5.28 1.94, 5.28 1.94 M2.85 18.52 C8.53 12.5, 14.67 3.68, 18.27 -0.63 M1.98 17.45 C7.42 12.21, 11.7 7.44, 16.86 1.02 M9.89 22.26 C15.23 14.02, 21.78 10.17, 25.13 4.33 M7.97 23.57 C12.7 17.71, 16.6 12.05, 24.07 4.04 M18.29 26.39 C21.41 21.5, 25.57 16.69, 26.54 13.06 M17.52 25.78 C19.97 22.14, 22.52 19.05, 27 13.84" stroke="#a5d8ff" stroke-width="1" fill="none"></path><path d="M14.67 -0.62 C17.37 -0.6, 20.54 0.83, 22.28 2.74 C24.01 4.65, 24.97 8.2, 25.07 10.81 C25.17 13.42, 24.57 16.38, 22.86 18.41 C21.15 20.44, 17.53 22.46, 14.82 22.99 C12.12 23.51, 9.01 22.91, 6.65 21.56 C4.29 20.22, 1.83 17.05, 0.67 14.93 C-0.49 12.8, -1.1 10.97, -0.32 8.79 C0.46 6.61, 2.45 3.27, 5.36 1.84 C8.28 0.41, 14.57 0.1, 17.18 0.21 C19.78 0.33, 20.98 2.14, 20.99 2.55 M13.59 -0.17 C16.18 0.19, 20.93 3.15, 22.84 5.23 C24.74 7.32, 25.06 10.3, 25.03 12.36 C24.99 14.42, 24.37 15.69, 22.63 17.57 C20.9 19.46, 17.27 23.27, 14.62 23.66 C11.97 24.05, 9.2 21.28, 6.75 19.93 C4.3 18.58, 0.66 17.9, -0.09 15.56 C-0.84 13.21, 1.24 8.37, 2.25 5.84 C3.26 3.31, 3.63 1.36, 5.97 0.39 C8.31 -0.58, 14.91 0.03, 16.3 0 C17.68 -0.03, 14.63 -0.12, 14.28 0.21" stroke="#1971c2" stroke-width="2" fill="none"></path></g><g stroke-linecap="round" transform="translate(109.16493055555549 240.01811218261787) rotate(0 8.152008056640625 7.146470811631957)"><path d="M2.57 3.56 C2.57 3.56, 2.57 3.56, 2.57 3.56 M2.57 3.56 C2.57 3.56, 2.57 3.56, 2.57 3.56 M4.36 12.98 C7.09 10.07, 8.77 8.77, 13.94 1.89 M4.27 14.68 C7.98 9.93, 11.2 5.68, 13.9 2.96" stroke="#ffec99" stroke-width="1" fill="none"></path><path d="M11.33 0.07 C12.94 0.54, 15.2 2.4, 16.08 3.83 C16.96 5.26, 17.12 7.31, 16.62 8.67 C16.12 10.02, 14.62 11.1, 13.08 11.95 C11.55 12.8, 9.2 13.58, 7.42 13.77 C5.64 13.96, 3.61 14.16, 2.38 13.11 C1.14 12.07, 0.03 9.05, 0.02 7.51 C0.01 5.96, 1.28 4.97, 2.32 3.85 C3.36 2.74, 4.51 1.21, 6.27 0.82 C8.02 0.42, 11.78 1.36, 12.85 1.5 C13.93 1.64, 12.88 1.61, 12.71 1.66 M5.31 1.02 C6.51 0.37, 8.59 0.77, 10.1 1.36 C11.61 1.94, 13.3 3.48, 14.37 4.53 C15.45 5.57, 16.85 6.3, 16.58 7.62 C16.31 8.94, 14.22 11.36, 12.75 12.43 C11.29 13.49, 9.61 13.89, 7.79 14.01 C5.96 14.14, 3.1 14.27, 1.81 13.18 C0.52 12.08, 0.08 8.76, 0.04 7.44 C0.01 6.11, 0.98 6.38, 1.61 5.23 C2.24 4.08, 3.29 1.12, 3.82 0.54 C4.36 -0.04, 4.42 1.43, 4.82 1.77" stroke="#f08c00" stroke-width="2" fill="none"></path></g><g stroke-linecap="round" transform="translate(171.38972981770831 221.37404208713178) rotate(0 14.085964626736057 12.505171034071168)"><path d="M1.26 7.72 C1.26 7.72, 1.26 7.72, 1.26 7.72 M1.26 7.72 C1.26 7.72, 1.26 7.72, 1.26 7.72 M1.76 18.98 C6.55 12.2, 10.25 6.95, 20.41 -1.27 M1.97 18.86 C6.51 13.06, 10.41 8.25, 18.2 0.34 M7.07 26.93 C13.03 19.73, 21.3 11.7, 25.51 4.74 M6.82 24.34 C12.63 17.54, 18.13 11.12, 24.8 6.03 M15.72 27.55 C20.43 22.79, 22.16 18.99, 31.06 10.71 M17.45 26.94 C18.99 21.93, 23.27 18.99, 31.02 11.56" stroke="#ffec99" stroke-width="1" fill="none"></path><path d="M7.93 1.44 C10.44 0.19, 15.46 -1, 18.28 -0.34 C21.09 0.31, 23 2.96, 24.8 5.37 C26.61 7.78, 29.31 11.42, 29.13 14.13 C28.94 16.83, 25.93 19.77, 23.69 21.61 C21.45 23.45, 18.72 24.91, 15.67 25.18 C12.62 25.45, 8.04 24.81, 5.39 23.24 C2.74 21.67, 0.41 18.38, -0.23 15.74 C-0.88 13.1, 0.03 9.8, 1.55 7.4 C3.06 5, 7.31 2.62, 8.87 1.34 C10.43 0.06, 10.65 -0.49, 10.88 -0.27 M16.89 0.43 C19.82 1.04, 23.94 3.96, 25.78 6.06 C27.62 8.17, 27.97 10.77, 27.92 13.04 C27.86 15.31, 27.24 17.6, 25.45 19.68 C23.66 21.77, 20.38 24.98, 17.17 25.55 C13.96 26.13, 8.95 24.79, 6.18 23.12 C3.4 21.46, 1.27 18.38, 0.53 15.59 C-0.22 12.8, 0.31 8.55, 1.71 6.4 C3.12 4.25, 6.1 3.7, 8.95 2.72 C11.8 1.74, 17.28 0.68, 18.81 0.52 C20.34 0.36, 18.26 1.38, 18.14 1.74" stroke="#f08c00" stroke-width="2" fill="none"></path></g><g stroke-linecap="round" transform="translate(258.61778428819434 215.10925801595118) rotate(0 16.407606336805543 15.702175564236114)"><path d="M1.91 8.28 C1.91 8.28, 1.91 8.28, 1.91 8.28 M1.91 8.28 C1.91 8.28, 1.91 8.28, 1.91 8.28 M-0.23 19.87 C4.59 17.13, 9.24 11.68, 16.48 2.93 M1.28 20.93 C6.02 15.96, 12.71 9.07, 17.34 4.14 M6.73 28.26 C15.4 20, 20.21 9.76, 27.67 4.28 M6.29 26.3 C12.37 20.79, 17.98 15.17, 27.02 5.07 M12.74 29.13 C21.77 23.72, 29.28 15.93, 33.14 9.26 M14.01 30.49 C18 25.3, 23.05 19.64, 32.65 8.9" stroke="#ffec99" stroke-width="1" fill="none"></path><path d="M22.52 0.83 C25.79 1.59, 28.79 4.57, 30.51 7.52 C32.23 10.47, 33.55 15.09, 32.82 18.54 C32.09 21.98, 28.75 25.93, 26.13 28.19 C23.5 30.45, 20.37 32.31, 17.06 32.1 C13.75 31.89, 9.21 29.13, 6.25 26.91 C3.29 24.69, 0.04 21.9, -0.68 18.79 C-1.4 15.68, -0.16 11.41, 1.92 8.27 C4 5.13, 8.08 0.9, 11.79 -0.07 C15.5 -1.05, 21.93 2.05, 24.18 2.41 C26.43 2.77, 25.55 1.85, 25.28 2.09 M8.66 2.1 C11.88 0.53, 18.05 -1.61, 21.54 -0.6 C25.04 0.41, 27.97 5.16, 29.64 8.15 C31.31 11.13, 32.04 14.16, 31.57 17.32 C31.1 20.47, 28.93 24.62, 26.83 27.06 C24.74 29.5, 22.11 31.79, 19.01 31.96 C15.9 32.13, 11.31 30.25, 8.22 28.1 C5.13 25.95, 1.54 22.36, 0.47 19.05 C-0.6 15.74, 0.15 11.08, 1.8 8.25 C3.44 5.41, 9.3 3.15, 10.36 2.02 C11.42 0.89, 8.25 1.52, 8.16 1.48" stroke="#f08c00" stroke-width="2" fill="none"></path></g><g stroke-linecap="round" transform="translate(397.92869737413184 489.2199079725484) rotate(0 27.552524142795164 24.87097846137152)"><path d="M5.58 10.15 C5.58 10.15, 5.58 10.15, 5.58 10.15 M5.58 10.15 C5.58 10.15, 5.58 10.15, 5.58 10.15 M-0.44 29.33 C6.79 20.24, 14.61 10.5, 24.61 0.73 M1.14 27.13 C9.75 18.39, 18.02 7.85, 22.54 3.37 M5.26 34.21 C13.55 26.08, 19.72 17.43, 32.06 2.11 M6.1 34.17 C14 24.27, 24.66 11.86, 32.97 2.29 M7.16 44.73 C16.72 33.98, 28.64 20.79, 42.44 2.94 M7.06 44.47 C18.09 32.65, 29.02 20.01, 41.74 3.4 M16.95 47.85 C28 34.2, 36.59 23.49, 46.31 11.08 M17.53 47.23 C27.47 32.83, 38.7 20.25, 47.36 10.75 M24.71 47.96 C35.54 36.97, 41.85 26.98, 53.15 14.29 M25.59 49.78 C31.01 41.89, 39.55 33.02, 54.2 15.11 M35.71 48.36 C42.26 39.65, 50.06 33.4, 55.99 27.77 M36.95 47.62 C44.4 38.93, 50.6 31.57, 55.52 26.18" stroke="#ffec99" stroke-width="1" fill="none"></path><path d="M40.69 1.79 C46.03 3.84, 50.83 10.5, 53.14 15.42 C55.44 20.33, 56.27 26.22, 54.54 31.27 C52.8 36.33, 47.72 42.8, 42.73 45.74 C37.75 48.68, 30.51 49.39, 24.61 48.92 C18.71 48.44, 11.43 46.72, 7.33 42.88 C3.22 39.05, 0.26 31.38, -0.02 25.92 C-0.31 20.46, 2.06 14.22, 5.61 10.12 C9.16 6.02, 14.42 1.95, 21.25 1.31 C28.08 0.67, 41.95 4.73, 46.6 6.3 C51.24 7.86, 49.44 10.57, 49.12 10.71 M28.52 -0.99 C34.39 -1.33, 42.48 1.43, 46.86 5.14 C51.24 8.86, 53.94 16.02, 54.81 21.3 C55.67 26.59, 55.01 32.45, 52.06 36.85 C49.11 41.24, 42.89 45.91, 37.11 47.65 C31.33 49.4, 23.23 48.92, 17.36 47.3 C11.5 45.68, 4.91 42.37, 1.91 37.92 C-1.1 33.48, -2.12 26.19, -0.66 20.63 C0.8 15.08, 5.94 8.06, 10.65 4.61 C15.36 1.16, 24.66 0.83, 27.58 -0.08 C30.5 -0.98, 27.96 -1.45, 28.17 -0.8" stroke="#f08c00" stroke-width="2" fill="none"></path></g><g stroke-linecap="round" transform="translate(484.4950629340277 470.9139726426873) rotate(0 39.661288791232664 35.61069064670136)"><path d="M7.1 15.45 C7.1 15.45, 7.1 15.45, 7.1 15.45 M7.1 15.45 C7.1 15.45, 7.1 15.45, 7.1 15.45 M0.27 34.26 C6.36 27.72, 12.83 21.31, 26.24 2.26 M-0.56 35.51 C5.36 29.83, 13.1 20.99, 28.67 4.18 M3.61 43.94 C10.07 32.72, 22.89 22.22, 38.38 3.96 M3.68 45.11 C13.97 31.42, 25.7 19.09, 38.85 2.91 M4.28 54.3 C23.08 37.36, 35.35 17.44, 49.73 3.42 M5.26 53.11 C16.06 40.75, 28.36 27.72, 48.73 2.55 M11.86 59.1 C24.47 40.9, 41.07 23.54, 55.12 8.57 M10.48 59.47 C24.58 45.96, 35.87 29.85, 55.38 8.13 M15.78 63.48 C34.56 44.13, 53.69 23.93, 63.59 12.99 M16.73 63.96 C31.87 47.51, 47.2 30.22, 63.57 11.61 M25.56 70.02 C41.06 50.32, 59.95 27.66, 71.56 14.86 M23.45 68.6 C42.7 49.01, 60 27.23, 71.54 15.17 M30.3 72.63 C38.41 63.62, 50.82 52.4, 75.65 21.88 M30.27 73.84 C42.4 59.78, 54.61 47.42, 74.54 24.37 M44.19 72.65 C55.44 56.55, 66.78 43.66, 78.69 33.48 M43.2 72.94 C54.5 58.91, 66.08 45.73, 77.55 32.77 M52.23 69.06 C65.46 60.08, 75.37 46.62, 82.81 39.35 M55.09 70.53 C60.67 63.57, 66.82 55.12, 83 38.7" stroke="#a5d8ff" stroke-width="1" fill="none"></path><path d="M26.92 2.73 C33.52 0.37, 43.47 0.46, 50.78 2.51 C58.09 4.55, 66.04 9.57, 70.8 14.99 C75.56 20.42, 79.13 28.07, 79.34 35.06 C79.54 42.04, 76.53 51.28, 72.02 56.93 C67.51 62.58, 59.69 66.72, 52.25 68.96 C44.81 71.2, 34.9 72.38, 27.39 70.34 C19.88 68.3, 11.84 62.46, 7.2 56.71 C2.57 50.96, -0.37 42.72, -0.39 35.85 C-0.42 28.98, 1.62 21.35, 7.05 15.51 C12.48 9.66, 27.1 3.36, 32.18 0.79 C37.25 -1.78, 37.36 -0.57, 37.52 0.06 M49.92 0.15 C57.32 1.33, 67.47 8.15, 72.29 13.83 C77.11 19.51, 78.9 27.27, 78.83 34.24 C78.75 41.2, 76.06 49.72, 71.85 55.61 C67.64 61.5, 60.94 67.15, 53.57 69.59 C46.19 72.02, 35.25 72.17, 27.58 70.24 C19.92 68.3, 11.97 63.75, 7.58 57.98 C3.18 52.21, 1.35 42.87, 1.24 35.62 C1.12 28.37, 2.63 20.19, 6.89 14.47 C11.16 8.75, 19.67 3.67, 26.85 1.29 C34.02 -1.09, 45.81 0.28, 49.94 0.2 C54.06 0.11, 51.36 0.23, 51.6 0.79" stroke="#1971c2" stroke-width="2" fill="none"></path></g><g transform="translate(147.53339301215271 373.40095180935396) rotate(0 29.279983520507812 12.5)"><text x="0" y="0" font-family="Virgil, Segoe UI Emoji" font-size="20px" fill="#1e1e1e" text-anchor="start" style="white-space: pre;" direction="ltr" dominant-baseline="text-before-edge">Japan</text></g><g transform="translate(256.1881103515625 375.86894226074287) rotate(0 28.10997772216797 12.5)"><text x="0" y="0" font-family="Virgil, Segoe UI Emoji" font-size="20px" fill="#1e1e1e" text-anchor="start" style="white-space: pre;" direction="ltr" dominant-baseline="text-before-edge">Korea</text></g><g transform="translate(58.36455620659717 428.9616614447707) rotate(0 23.139984130859375 12.5)"><text x="0" y="0" font-family="Virgil, Segoe UI Emoji" font-size="20px" fill="#1e1e1e" text-anchor="start" style="white-space: pre;" direction="ltr" dominant-baseline="text-before-edge">mean</text></g><g transform="translate(64.80674913194434 478.70375400119417) rotate(0 16.769981384277344 12.5)"><text x="0" y="0" font-family="Virgil, Segoe UI Emoji" font-size="20px" fill="#1e1e1e" text-anchor="start" style="white-space: pre;" direction="ltr" dominant-baseline="text-before-edge">std</text></g><g transform="translate(149.59566921657984 430.07087368435396) rotate(0 34.35997772216797 12.5)"><text x="0" y="0" font-family="Virgil, Segoe UI Emoji" font-size="20px" fill="#1e1e1e" text-anchor="start" style="white-space: pre;" direction="ltr" dominant-baseline="text-before-edge">105279</text></g><g transform="translate(250.682774013943 428.4202796088331) rotate(0 31.97998046875 12.5)"><text x="0" y="0" font-family="Virgil, Segoe UI Emoji" font-size="20px" fill="#1e1e1e" text-anchor="start" style="white-space: pre;" direction="ltr" dominant-baseline="text-before-edge">39395</text></g><g transform="translate(147.28311581081812 476.45053948296504) rotate(0 28.519989013671875 12.5)"><text x="0" y="0" font-family="Virgil, Segoe UI Emoji" font-size="20px" fill="#1e1e1e" text-anchor="start" style="white-space: pre;" direction="ltr" dominant-baseline="text-before-edge">17333</text></g><g transform="translate(254.5943230523003 474.996885511611) rotate(0 26.249984741210938 12.5)"><text x="0" y="0" font-family="Virgil, Segoe UI Emoji" font-size="20px" fill="#1e1e1e" text-anchor="start" style="white-space: pre;" direction="ltr" dominant-baseline="text-before-edge">9600</text></g><g transform="translate(468.8358832465277 281.74628872341646) rotate(0 21.59998321533203 12.5)"><text x="0" y="0" font-family="Virgil, Segoe UI Emoji" font-size="20px" fill="#1e1e1e" text-anchor="start" style="white-space: pre;" direction="ltr" dominant-baseline="text-before-edge">Year</text></g><g transform="translate(160.34808264838313 272.1972368028436) rotate(0 21.599983215332003 12.5)"><text x="0" y="0" font-family="Virgil, Segoe UI Emoji" font-size="20px" fill="#1e1e1e" text-anchor="start" style="white-space: pre;" direction="ltr" dominant-baseline="text-before-edge">Year</text></g><g transform="translate(347.63361189100465 198.05630662706238) rotate(271.9943224939576 22.29998779296875 12.5)"><text x="0" y="0" font-family="Virgil, Segoe UI Emoji" font-size="20px" fill="#1e1e1e" text-anchor="start" style="white-space: pre;" direction="ltr" dominant-baseline="text-before-edge">GDP</text></g><g transform="translate(2.2524649648319155 192.03294051836048) rotate(271.9943224939576 50.109947204589844 12.5)"><text x="0" y="0" font-family="Virgil, Segoe UI Emoji" font-size="20px" fill="#1e1e1e" text-anchor="start" style="white-space: pre;" direction="ltr" dominant-baseline="text-before-edge">Population</text></g></svg>